<svg id="Layer_1" viewBox="0 0 24 24" xmlns="http://www.w3.org/2000/svg" data-name="Layer 1"><path d="m16 12c0 .828-.672 1.5-1.5 1.5s-1.5-.672-1.5-1.5.672-1.5 1.5-1.5 1.5.672 1.5 1.5zm2.5-1.5c-.828 0-1.5.672-1.5 1.5s.672 1.5 1.5 1.5 1.5-.672 1.5-1.5-.672-1.5-1.5-1.5zm4 0c-.828 0-1.5.672-1.5 1.5s.672 1.5 1.5 1.5 1.5-.672 1.5-1.5-.672-1.5-1.5-1.5zm-12.061 2.561c-.283-.284-.439-.66-.439-1.061s.156-.777.446-1.067l4.326-4.379c.583-.589.577-1.539-.013-2.121-.589-.583-1.539-.577-2.121.013l-4.319 4.372c-.851.85-1.319 1.979-1.319 3.182s.468 2.332 1.312 3.175l4.326 4.379c.582.591 1.532.595 2.121.014.589-.582.595-1.532.013-2.121l-4.332-4.386zm-7 0c-.283-.284-.439-.66-.439-1.061s.156-.777.444-1.065l7.311-7.379c.583-.588.579-1.538-.01-2.121s-1.539-.579-2.121.01l-7.305 7.373c-.851.85-1.319 1.979-1.319 3.182s.468 2.332 1.313 3.177l7.315 7.379c.583.589 1.533.593 2.122.01.588-.583.592-1.533.009-2.121z"/></svg>