<svg id="Layer_1" viewBox="0 0 24 24" xmlns="http://www.w3.org/2000/svg" data-name="Layer 1"><path d="m9.5 13.5c-.828 0-1.5-.672-1.5-1.5s.672-1.5 1.5-1.5 1.5.672 1.5 1.5-.672 1.5-1.5 1.5zm-4-3c-.828 0-1.5.672-1.5 1.5s.672 1.5 1.5 1.5 1.5-.672 1.5-1.5-.672-1.5-1.5-1.5zm-4 0c-.828 0-1.5.672-1.5 1.5s.672 1.5 1.5 1.5 1.5-.672 1.5-1.5-.672-1.5-1.5-1.5zm15.5 1.5c0-1.203-.469-2.333-1.312-3.175l-4.325-4.379c-.583-.59-1.532-.595-2.121-.013-.59.583-.596 1.532-.014 2.122l4.332 4.386c.283.283.439.66.439 1.06s-.156.777-.446 1.067l-4.325 4.379c-.582.589-.576 1.539.014 2.121.589.581 1.538.577 2.121-.014l4.318-4.372c.851-.85 1.318-1.979 1.318-3.182zm5.687-3.177-7.316-7.379c-.584-.589-1.533-.592-2.121-.009-.589.583-.593 1.533-.01 2.122l7.32 7.384c.283.283.439.66.439 1.06s-.156.777-.444 1.065l-7.312 7.379c-.583.588-.579 1.538.01 2.121.587.583 1.538.579 2.121-.01l7.307-7.374c.851-.85 1.318-1.979 1.318-3.182s-.469-2.333-1.313-3.177z"/></svg>