<svg id="Layer_1" viewBox="0 0 24 24" xmlns="http://www.w3.org/2000/svg" data-name="Layer 1"><path d="m10.5 9.5c0-.828.672-1.5 1.5-1.5s1.5.672 1.5 1.5-.672 1.5-1.5 1.5-1.5-.672-1.5-1.5zm1.5-2.5c.828 0 1.5-.672 1.5-1.5s-.672-1.5-1.5-1.5-1.5.672-1.5 1.5.672 1.5 1.5 1.5zm0-4c.828 0 1.5-.672 1.5-1.5s-.672-1.5-1.5-1.5-1.5.672-1.5 1.5.672 1.5 1.5 1.5zm-3.182 12.682c.85.85 1.979 1.318 3.182 1.318s2.333-.469 3.175-1.312l4.379-4.326c.589-.582.595-1.532.013-2.121-.581-.59-1.531-.596-2.121-.013l-4.386 4.332c-.566.566-1.547.573-2.127-.007l-4.379-4.325c-.589-.583-1.54-.577-2.121.013-.583.589-.577 1.539.013 2.121l4.372 4.319zm13.748-2.432c-.583-.59-1.533-.592-2.122-.01l-7.384 7.32c-.566.566-1.548.571-2.125-.005l-7.379-7.311c-.589-.583-1.539-.579-2.121.01-.583.588-.579 1.538.01 2.121l7.374 7.307c.85.85 1.979 1.318 3.182 1.318s2.333-.469 3.177-1.313l7.379-7.315c.588-.583.592-1.533.009-2.121z"/></svg>