<?xml version="1.0" encoding="UTF-8"?>
<svg xmlns="http://www.w3.org/2000/svg" id="Layer_1" data-name="Layer 1" viewBox="0 0 24 24">
  <path d="M13.5,2.115v-.615c0-.829-.672-1.5-1.5-1.5s-1.5,.671-1.5,1.5v.615C5.143,2.85,1,7.445,1,13c0,6.065,4.935,11,11,11s11-4.935,11-11c0-5.555-4.143-10.15-9.5-10.885Zm0,18.739v-.354c0-.828-.672-1.5-1.5-1.5s-1.5,.672-1.5,1.5v.354c-3.209-.612-5.742-3.145-6.354-6.354h.354c.828,0,1.5-.672,1.5-1.5s-.672-1.5-1.5-1.5h-.354c.612-3.209,3.145-5.742,6.354-6.354v.354c0,.829,.672,1.5,1.5,1.5s1.5-.671,1.5-1.5v-.354c3.209,.612,5.742,3.145,6.354,6.354h-.354c-.828,0-1.5,.671-1.5,1.5s.672,1.5,1.5,1.5h.354c-.612,3.209-3.145,5.742-6.354,6.354Zm2.98-4.354c.265,.619-.361,1.246-.98,.98l-4.838-2.469c-.302-.13-.544-.371-.673-.673l-2.426-4.838c-.265-.619,.361-1.246,.98-.98l4.795,2.469c.302,.13,.544,.371,.673,.673l2.469,4.838Z"/>
</svg>
