<svg xmlns="http://www.w3.org/2000/svg" viewBox="0 0 750 500"><g id="freepik--background-simple--inject-2"><path d="M689,289s6.92-110.72-108.12-185.11S379.3,132.48,334.32,149.78,223.6,110,164.79,137.67,110.29,238,105.1,264s-77,81.31-81.3,115,13.84,68.34,13.84,68.34h620S694.15,402.35,689,289Z" style="fill:#D96B8C"></path><path d="M689,289s6.92-110.72-108.12-185.11S379.3,132.48,334.32,149.78,223.6,110,164.79,137.67,110.29,238,105.1,264s-77,81.31-81.3,115,13.84,68.34,13.84,68.34h620S694.15,402.35,689,289Z" style="fill:#fff;opacity:0.7000000000000001"></path></g><g id="freepik--furniture-3--inject-2"><rect x="578.11" y="313.79" width="97.8" height="133.53" style="fill:#263238;stroke:#263238;stroke-linecap:round;stroke-linejoin:round"></rect><rect x="578.11" y="313.79" width="79.51" height="133.53" style="fill:#fff;stroke:#263238;stroke-linecap:round;stroke-linejoin:round"></rect><rect x="586.71" y="324.68" width="62.59" height="30.51" style="fill:#fff;stroke:#263238;stroke-linecap:round;stroke-linejoin:round"></rect><rect x="608.91" y="336.47" width="18.2" height="4.64" style="fill:#263238;stroke:#263238;stroke-linecap:round;stroke-linejoin:round"></rect><rect x="586.71" y="364.84" width="62.59" height="30.51" style="fill:#fff;stroke:#263238;stroke-linecap:round;stroke-linejoin:round"></rect><rect x="608.91" y="376.63" width="18.2" height="4.64" style="fill:#263238;stroke:#263238;stroke-linecap:round;stroke-linejoin:round"></rect><rect x="586.71" y="405" width="62.59" height="30.51" style="fill:#fff;stroke:#263238;stroke-linecap:round;stroke-linejoin:round"></rect><rect x="608.91" y="416.79" width="18.2" height="4.64" style="fill:#263238;stroke:#263238;stroke-linecap:round;stroke-linejoin:round"></rect></g><g id="freepik--furniture-2--inject-2"><rect x="359.28" y="313.79" width="97.8" height="133.53" style="fill:#263238;stroke:#263238;stroke-linecap:round;stroke-linejoin:round"></rect><rect x="359.28" y="313.79" width="79.51" height="133.53" style="fill:#fff;stroke:#263238;stroke-linecap:round;stroke-linejoin:round"></rect><rect x="367.87" y="324.68" width="62.59" height="30.51" style="fill:#fff;stroke:#263238;stroke-linecap:round;stroke-linejoin:round"></rect><rect x="390.07" y="336.47" width="18.2" height="4.64" style="fill:#263238;stroke:#263238;stroke-linecap:round;stroke-linejoin:round"></rect><rect x="367.87" y="364.84" width="62.59" height="30.51" style="fill:#fff;stroke:#263238;stroke-linecap:round;stroke-linejoin:round"></rect><rect x="390.07" y="376.63" width="18.2" height="4.64" style="fill:#263238;stroke:#263238;stroke-linecap:round;stroke-linejoin:round"></rect><rect x="367.87" y="405" width="62.59" height="30.51" style="fill:#fff;stroke:#263238;stroke-linecap:round;stroke-linejoin:round"></rect><rect x="390.07" y="416.79" width="18.2" height="4.64" style="fill:#263238;stroke:#263238;stroke-linecap:round;stroke-linejoin:round"></rect></g><g id="freepik--furniture-1--inject-2"><rect x="110.16" y="313.79" width="97.8" height="133.53" style="fill:#263238;stroke:#263238;stroke-linecap:round;stroke-linejoin:round"></rect><rect x="110.16" y="313.79" width="79.51" height="133.53" style="fill:#fff;stroke:#263238;stroke-linecap:round;stroke-linejoin:round"></rect><rect x="118.76" y="324.68" width="62.59" height="30.51" style="fill:#fff;stroke:#263238;stroke-linecap:round;stroke-linejoin:round"></rect><rect x="140.96" y="336.47" width="18.2" height="4.64" style="fill:#263238;stroke:#263238;stroke-linecap:round;stroke-linejoin:round"></rect><rect x="118.76" y="364.84" width="62.59" height="30.51" style="fill:#fff;stroke:#263238;stroke-linecap:round;stroke-linejoin:round"></rect><rect x="140.96" y="376.63" width="18.2" height="4.64" style="fill:#263238;stroke:#263238;stroke-linecap:round;stroke-linejoin:round"></rect><rect x="118.76" y="405" width="62.59" height="30.51" style="fill:#fff;stroke:#263238;stroke-linecap:round;stroke-linejoin:round"></rect><rect x="140.96" y="416.79" width="18.2" height="4.64" style="fill:#263238;stroke:#263238;stroke-linecap:round;stroke-linejoin:round"></rect></g><g id="freepik--mirror-2--inject-2"><path d="M566.64,294.32V283.17H526a3.81,3.81,0,0,0,0,7.61h22.82a38.26,38.26,0,0,1,17.49,19.37l.31.76h5.57V294.32Z" style="fill:#fff;stroke:#263238;stroke-linecap:round;stroke-linejoin:round"></path><path d="M463.65,294.32V283.17H423a3.81,3.81,0,1,0,0,7.61h22.82a38.26,38.26,0,0,1,17.49,19.37l.31.76h5.57V294.32Z" style="fill:#fff;stroke:#263238;stroke-linecap:round;stroke-linejoin:round"></path><path d="M428.6,283.17a3.81,3.81,0,0,0,0,7.61h22.82a38.26,38.26,0,0,1,17.49,19.37l.31.76V283.17Z" style="fill:#263238;stroke:#263238;stroke-linecap:round;stroke-linejoin:round"></path><path d="M572.21,290.78H422.15a3.81,3.81,0,0,1-3.81-3.8h0a3.81,3.81,0,0,1,3.81-3.81H572.21Z" style="fill:#fff;stroke:#263238;stroke-linecap:round;stroke-linejoin:round"></path><path d="M531.6,283.17a3.81,3.81,0,1,0,0,7.61h22.81a38.26,38.26,0,0,1,17.49,19.37l.31.76V283.17Z" style="fill:#263238;stroke:#263238;stroke-linecap:round;stroke-linejoin:round"></path><circle cx="500.07" cy="204.71" r="68.59" style="fill:#263238;stroke:#263238;stroke-linecap:round;stroke-linejoin:round"></circle><circle cx="497.42" cy="204.71" r="68.59" style="fill:#fff;stroke:#263238;stroke-linecap:round;stroke-linejoin:round"></circle><rect x="539.06" y="245.88" width="10.6" height="36.79" style="fill:#fff;stroke:#263238;stroke-linecap:round;stroke-linejoin:round"></rect><rect x="539.06" y="245.88" width="10.6" height="10.38" style="fill:#fff;stroke:#263238;stroke-linecap:round;stroke-linejoin:round"></rect><rect x="523.64" y="256.73" width="7.47" height="25.94" style="fill:#fff;stroke:#263238;stroke-linecap:round;stroke-linejoin:round"></rect><rect x="523.64" y="256.73" width="7.47" height="7.32" style="fill:#fff;stroke:#263238;stroke-linecap:round;stroke-linejoin:round"></rect><line x1="474.9" y1="236.41" x2="470.87" y2="240.44" style="fill:#fff;stroke:#263238;stroke-linecap:round;stroke-linejoin:round"></line><line x1="539.2" y1="172.11" x2="477.73" y2="233.58" style="fill:#fff;stroke:#263238;stroke-linecap:round;stroke-linejoin:round"></line><line x1="522.22" y1="167.78" x2="508.48" y2="181.51" style="fill:#fff;stroke:#263238;stroke-linecap:round;stroke-linejoin:round"></line><line x1="527.29" y1="162.7" x2="524.87" y2="165.12" style="fill:#fff;stroke:#263238;stroke-linecap:round;stroke-linejoin:round"></line></g><g id="freepik--mirror-1--inject-2"><path d="M364.77,294.32V283.17H324.15a3.81,3.81,0,0,0,0,7.61H347a38.26,38.26,0,0,1,17.49,19.37l.31.76h5.57V294.32Z" style="fill:#fff;stroke:#263238;stroke-linecap:round;stroke-linejoin:round"></path><path d="M261.78,294.32V283.17H221.16a3.81,3.81,0,1,0,0,7.61H244a38.26,38.26,0,0,1,17.49,19.37l.31.76h5.57V294.32Z" style="fill:#fff;stroke:#263238;stroke-linecap:round;stroke-linejoin:round"></path><path d="M226.73,283.17a3.81,3.81,0,0,0,0,7.61h22.82A38.26,38.26,0,0,1,267,310.15l.31.76V283.17Z" style="fill:#263238;stroke:#263238;stroke-linecap:round;stroke-linejoin:round"></path><path d="M370.34,290.78H220.28a3.81,3.81,0,0,1-3.81-3.8h0a3.81,3.81,0,0,1,3.81-3.81H370.34Z" style="fill:#fff;stroke:#263238;stroke-linecap:round;stroke-linejoin:round"></path><path d="M329.73,283.17a3.81,3.81,0,1,0,0,7.61h22.82A38.28,38.28,0,0,1,370,310.15l.31.76V283.17Z" style="fill:#263238;stroke:#263238;stroke-linecap:round;stroke-linejoin:round"></path><circle cx="298.2" cy="204.71" r="68.59" style="fill:#263238;stroke:#263238;stroke-linecap:round;stroke-linejoin:round"></circle><circle cx="295.55" cy="204.71" r="68.59" style="fill:#fff;stroke:#263238;stroke-linecap:round;stroke-linejoin:round"></circle><line x1="318.53" y1="158.94" x2="293.14" y2="184.33" style="fill:#fff;stroke:#263238;stroke-linecap:round;stroke-linejoin:round"></line><line x1="327.3" y1="150.16" x2="322.91" y2="154.55" style="fill:#fff;stroke:#263238;stroke-linecap:round;stroke-linejoin:round"></line><line x1="286.55" y1="175.24" x2="277.46" y2="184.33" style="fill:#fff;stroke:#263238;stroke-linecap:round;stroke-linejoin:round"></line><line x1="293.45" y1="168.35" x2="288.91" y2="172.89" style="fill:#fff;stroke:#263238;stroke-linecap:round;stroke-linejoin:round"></line><rect x="337.19" y="245.88" width="10.6" height="36.79" style="fill:#fff;stroke:#263238;stroke-linecap:round;stroke-linejoin:round"></rect><rect x="337.19" y="245.88" width="10.6" height="10.38" style="fill:#fff;stroke:#263238;stroke-linecap:round;stroke-linejoin:round"></rect><rect x="321.77" y="256.73" width="7.47" height="25.94" style="fill:#fff;stroke:#263238;stroke-linecap:round;stroke-linejoin:round"></rect><rect x="321.77" y="256.73" width="7.47" height="7.32" style="fill:#fff;stroke:#263238;stroke-linecap:round;stroke-linejoin:round"></rect></g><g id="freepik--Lamps--inject-2"><rect x="610.33" y="112.1" width="25.95" height="60.55" style="fill:#fff;stroke:#263238;stroke-linecap:round;stroke-linejoin:round"></rect><line x1="623.3" y1="112.15" x2="623.3" y2="44.63" style="fill:none;stroke:#263238;stroke-linecap:round;stroke-linejoin:round"></line><rect x="384.92" y="112.1" width="25.95" height="60.55" style="fill:#fff;stroke:#263238;stroke-linecap:round;stroke-linejoin:round"></rect><line x1="397.9" y1="112.15" x2="397.9" y2="44.63" style="fill:none;stroke:#263238;stroke-linecap:round;stroke-linejoin:round"></line><rect x="155.79" y="112.1" width="25.95" height="60.55" style="fill:#fff;stroke:#263238;stroke-linecap:round;stroke-linejoin:round"></rect><line x1="168.77" y1="112.15" x2="168.77" y2="44.63" style="fill:none;stroke:#263238;stroke-linecap:round;stroke-linejoin:round"></line></g><g id="freepik--Chair--inject-2"><line x1="184.64" y1="366.82" x2="219.09" y2="416.32" style="fill:none;stroke:#263238;stroke-linecap:round;stroke-linejoin:round;stroke-width:2px"></line><line x1="218.54" y1="416.51" x2="233.45" y2="416.51" style="fill:none;stroke:#263238;stroke-linecap:round;stroke-linejoin:round;stroke-width:2px"></line><line x1="192.76" y1="367.41" x2="232.95" y2="416.12" style="fill:none;stroke:#263238;stroke-linecap:round;stroke-linejoin:round;stroke-width:2px"></line><line x1="144.05" y1="382.07" x2="108.61" y2="398.3" style="fill:none;stroke:#263238;stroke-linecap:round;stroke-linejoin:round;stroke-width:2px"></line><rect x="148.15" y="365.55" width="6.45" height="71.76" style="fill:#3d3d3d;stroke:#263238;stroke-linecap:round;stroke-linejoin:round"></rect><path d="M166.63,435.92l-.9-.49a12.13,12.13,0,0,1-6-10.57V378.3H143.06v46.77a12.16,12.16,0,0,1-6.42,10.79l-.12.06c-5.33,2.76-19.52,6.36-25.63,7.83A3.75,3.75,0,0,0,108,447.4h87.11a3.75,3.75,0,0,0-2.87-3.65C186.15,442.28,172,438.68,166.63,435.92Z" style="fill:#fff;stroke:#263238;stroke-linecap:round;stroke-linejoin:round"></path><path d="M135.36,439a24.33,24.33,0,0,1-4.66,1.48" style="fill:none;stroke:#263238;stroke-linecap:round;stroke-linejoin:round"></path><path d="M146.76,381.85v41c0,6.35-3.42,11.44-8.47,14.6" style="fill:none;stroke:#263238;stroke-linecap:round;stroke-linejoin:round"></path><line x1="156.13" y1="382.07" x2="130.59" y2="398.3" style="fill:none;stroke:#263238;stroke-linecap:round;stroke-linejoin:round;stroke-width:2px"></line><line x1="109.6" y1="397.51" x2="130.59" y2="397.51" style="fill:none;stroke:#263238;stroke-linecap:round;stroke-linejoin:round;stroke-width:4px"></line><path d="M139.89,323.66h53.87a5.89,5.89,0,0,1,5.93,6v.15c-.2,4.95-.2,34.05-.6,35.63a3.91,3.91,0,0,1-1.19,2.18H99.3a18.86,18.86,0,0,1-2.77-6.13c-1.19-4.16-11.09-29.11-8.31-36,1.09-2.73,5.74-2,5.74-2Z" style="fill:#878787;stroke:#263238;stroke-linecap:round;stroke-linejoin:round"></path><path d="M88.22,325.44c-2.78,6.93,7.12,31.88,8.31,36a18.86,18.86,0,0,0,2.77,6.13h43.34c.07-.24.15-.5.22-.79,1.19-4.55,1.39-31.48.79-37.22s-3.76-5.94-3.76-5.94L94,323.46S89.31,322.71,88.22,325.44Z" style="fill:#3d3d3d;stroke:#263238;stroke-linecap:round;stroke-linejoin:round"></path><path d="M92.69,286.24a8.65,8.65,0,0,0-3.37.66c-1.95.83-3.47,4.94-3.08,7.39.59,3.76,14.65,57.68,16,58.08s32.47,0,32.47,0-1.58-20.59-.19-24.75a5.61,5.61,0,0,1,3.57-3.89c.87-.32,8.69.06,9.61-.07l-5.67-29.81a9.38,9.38,0,0,0-9.21-7.61Z" style="fill:#737373;stroke:#263238;stroke-linecap:round;stroke-linejoin:round"></path><path d="M127.12,287a12.6,12.6,0,0,1,8.47,8.63l4.29,28c2.61,0,7.16.16,7.85.06l-5.67-29.81a9.38,9.38,0,0,0-9.21-7.61h-9l-1.21,0Z" style="fill:#878787;stroke:#263238;stroke-linecap:round;stroke-linejoin:round"></path></g><g id="freepik--character-2--inject-2"><path d="M366.49,353.56,378,347.22a134.2,134.2,0,0,0,3,21.18c2.38,9.71,7.52,32.28,8.91,36.63s.79,10.5,1.78,11.29,4.56.39,6.73-.59,6.74-3,8.72-3.77,6.73-3,9.1-6.73-.59-1.19-3.76-.59-12.27-1.78-14.06-3-1.78-31.48-1.18-47.12-3.37-27.72-6.14-29.9-12.28.79-12.28.79l-9.22.82Z" style="fill:#4f2e11;stroke:#263238;stroke-linecap:round;stroke-linejoin:round"></path><line x1="377.97" y1="347.22" x2="386.48" y2="341.87" style="fill:none;stroke:#263238;stroke-linecap:round;stroke-linejoin:round"></line><path d="M412.42,404.64c-2.65.49-9.45-1.09-12.65-2.31a1.69,1.69,0,0,1,.12.36c.37,1.63.91,3.45.91,3.45S397,408.86,393,409c-.77,0-1.57.08-2.36.13.37,3.38.28,6.59,1,7.15,1,.79,4.56.39,6.73-.6s6.74-3,8.72-3.76,6.73-3,9.1-6.73S415.59,404,412.42,404.64Z" style="fill:#263238;stroke:#263238;stroke-linecap:round;stroke-linejoin:round"></path><line x1="357.18" y1="366.82" x2="391.63" y2="416.32" style="fill:none;stroke:#263238;stroke-linecap:round;stroke-linejoin:round;stroke-width:2px"></line><line x1="391.09" y1="416.51" x2="405.99" y2="416.51" style="fill:none;stroke:#263238;stroke-linecap:round;stroke-linejoin:round;stroke-width:2px"></line><line x1="365.3" y1="367.41" x2="405.49" y2="416.12" style="fill:none;stroke:#263238;stroke-linecap:round;stroke-linejoin:round;stroke-width:2px"></line><path d="M368.27,307.42s19.9-7.25,22-4.55c13,16.8,27,58.8,29.93,63.95a17.18,17.18,0,0,0,6.93,6.93s12.08-2.18,15.84-3.56,3,.39,2,2.57-2.18,5.35-6.14,7.92a62.67,62.67,0,0,1-12.87,6.14c-3.56,1.19-4,1.78-5.15,0s-5.15-11.09-8.71-16.83-17.66-23.76-22.8-30.69A115.73,115.73,0,0,1,380.35,325l-13.58,2.21s-4.84,4.92-5.83-.62S368.27,307.42,368.27,307.42Z" style="fill:#4f2e11;stroke:#263238;stroke-linecap:round;stroke-linejoin:round"></path><path d="M380.35,325s-2.58-7.52-2.58-13.26" style="fill:none;stroke:#263238;stroke-linecap:round;stroke-linejoin:round"></path><path d="M443,370.19c-3.76,1.38-15.84,3.56-15.84,3.56s-1.29.84-1.11,1.75l.18.91s1.09,1.45-4.71,2.71c-1.7.38-3.05.65-4.12.86,1.57,3.23,2.83,6,3.42,6.84,1.19,1.78,1.59,1.19,5.15,0a62.67,62.67,0,0,0,12.87-6.14c4-2.57,7.07-7.72,8.06-9.89S446.71,368.8,443,370.19Z" style="fill:#263238;stroke:#263238;stroke-linecap:round;stroke-linejoin:round"></path><path d="M444.68,371.31a21.63,21.63,0,0,0-4.5,3.07,35.67,35.67,0,0,0-3.67,3.29c-2.35,2.36-3.8,4.35-7.43,6-3.24,1.46-6.25,2.23-8.36,3.08a.35.35,0,0,1,0,.08c1.19,1.78,1.59,1.19,5.15,0a62.67,62.67,0,0,0,12.87-6.14c4-2.57,7.07-7.72,8.06-9.89C447.14,370.14,445.43,371,444.68,371.31Z" style="fill:#4f2e11;stroke:#263238;stroke-linecap:round;stroke-linejoin:round"></path><line x1="316.59" y1="382.07" x2="281.15" y2="398.3" style="fill:none;stroke:#263238;stroke-linecap:round;stroke-linejoin:round;stroke-width:2px"></line><rect x="320.7" y="365.55" width="6.45" height="71.76" style="fill:#3d3d3d;stroke:#263238;stroke-linecap:round;stroke-linejoin:round"></rect><path d="M339.18,435.92c-.32-.16-.62-.33-.91-.49a12.15,12.15,0,0,1-6-10.57V378.3H315.6v46.77a12.16,12.16,0,0,1-6.42,10.79l-.12.06c-5.33,2.76-19.52,6.36-25.63,7.83a3.76,3.76,0,0,0-2.87,3.65h87.12a3.76,3.76,0,0,0-2.87-3.65C358.69,442.28,344.5,438.68,339.18,435.92Z" style="fill:#4f2e11;stroke:#263238;stroke-linecap:round;stroke-linejoin:round"></path><path d="M307.9,439a24.11,24.11,0,0,1-4.66,1.48" style="fill:none;stroke:#263238;stroke-linecap:round;stroke-linejoin:round"></path><path d="M319.3,381.85v41c0,6.35-3.41,11.44-8.46,14.6" style="fill:none;stroke:#263238;stroke-linecap:round;stroke-linejoin:round"></path><line x1="328.67" y1="382.07" x2="303.13" y2="398.3" style="fill:none;stroke:#263238;stroke-linecap:round;stroke-linejoin:round;stroke-width:2px"></line><line x1="282.14" y1="397.51" x2="303.13" y2="397.51" style="fill:none;stroke:#263238;stroke-linecap:round;stroke-linejoin:round;stroke-width:4px"></line><path d="M312.44,323.66h57.22s2.77,1.19,2.57,6.14-.2,34.05-.59,35.63a4,4,0,0,1-1.19,2.18h-98.6a18.6,18.6,0,0,1-2.77-6.13c-1.19-4.16-11.09-29.11-8.32-36,1.09-2.73,5.74-2,5.74-2Z" style="fill:#878787;stroke:#263238;stroke-linecap:round;stroke-linejoin:round"></path><path d="M260.76,325.44c-2.77,6.93,7.13,31.88,8.32,36a18.6,18.6,0,0,0,2.77,6.13h43.33c.08-.24.15-.5.23-.79,1.18-4.55,1.38-31.48.79-37.22s-3.76-5.94-3.76-5.94l-45.94-.2S261.85,322.71,260.76,325.44Z" style="fill:#3d3d3d;stroke:#263238;stroke-linecap:round;stroke-linejoin:round"></path><path d="M263.73,286.24s-6.73,1.78-6.14,5.54,15.84,60.19,17.23,60.59,32.47,0,32.47,0-1.59-20.59-.2-24.75c.82-2.47,5.35-4,5.35-4l-7.13-37.42Z" style="fill:#737373;stroke:#263238;stroke-linecap:round;stroke-linejoin:round"></path><path d="M319.37,200.31a60,60,0,0,1,1.38,6.33c.4,2.78-1.19,5.94-.59,7.73s4.95,4.35,4,5.54-3.17,3.37-3.17,3.37-1,7.52-2.57,9.1-5.15.6-6.14.4-2.58-.59-2.58-.59l-2.57-3s-4-.4-2.57-5.15,2.57-10.69,3.56-12.48a35.87,35.87,0,0,1,3.17-4.35s2.37-2.58,3.17-3.37S319.37,200.31,319.37,200.31Z" style="fill:#4f2e11;stroke:#263238;stroke-linecap:round;stroke-linejoin:round"></path><path d="M319.18,214.67c0,1-.32,1.76-.71,1.76s-.7-.78-.7-1.76.31-1.76.7-1.76S319.18,213.7,319.18,214.67Z" style="fill:#263238"></path><path d="M319.85,210.41s-1.47-1.93-2.62,1" style="fill:none;stroke:#263238;stroke-linecap:round;stroke-linejoin:round"></path><path d="M320.41,225.78a2.89,2.89,0,0,1-2.82-.71" style="fill:none;stroke:#263238;stroke-linecap:round;stroke-linejoin:round"></path><path d="M312,251s8.32,3,10.1,8.71,17.42,25.34,21.18,29.7,27.13,17.82,27.13,17.82-3.17,14-6.14,16.82h3.56s.6,3.57-2.17,8.12-15.65,9.7-23.57,13.66-4.95,8.72-10.69,10.7-14.05,1.78-15.44.19-10.69-70.48-10.69-70.48H263.73s4.95-18.61,8.71-25.74,13.86-12.67,26.14-12.67S312,251,312,251Z" style="fill:#D96B8C;stroke:#263238;stroke-linecap:round;stroke-linejoin:round"></path><path d="M289.83,286.24l-7.49-18.81s-.79,1.58-3.56,6.33c-1.85,3.17-3.6,9-4.57,12.48Z" style="fill:#4f2e11;stroke:#263238;stroke-linecap:round;stroke-linejoin:round"></path><line x1="304.91" y1="284.85" x2="303.33" y2="268.42" style="fill:none;stroke:#263238;stroke-linecap:round;stroke-linejoin:round"></line><path d="M322.34,264.66s6.92,21.78,13.46,33.06" style="fill:none;stroke:#263238;stroke-linecap:round;stroke-linejoin:round"></path><path d="M345.1,292.57s12.87,25.35,17.23,29.5" style="fill:none;stroke:#263238;stroke-linecap:round;stroke-linejoin:round"></path><path d="M336.79,347.62S321,277.13,320,269.61" style="fill:none;stroke:#263238;stroke-linecap:round;stroke-linejoin:round"></path><path d="M320.36,196.75s-.4,6.92-1.39,7.91-4.75,3.37-5.54,5.94,3.36,6.93.59,10.89-6.34,4-4.95,8.91,5.94,12.28,6.34,16.24-2.38,9.3-5.15,9.9-3.57-4.36-5.35-3.76-5.34,4-5,7.92a36.78,36.78,0,0,0,.79,5.34,19.73,19.73,0,0,1-7.72,1.39,56.92,56.92,0,0,1-7.92-.6c-.59,0-2.18-6.33-2.18-6.33l-1.18,4.95s-1.59,2-5.75,0-7.72-3.76-7.91-4.95-2-3.37,1.38-9.31,5.35-7.32,4.95-12.67a90.63,90.63,0,0,1,.59-13.66s5.94-15.44,5.55-22.57,13.26-14.45,23-11.88,10.09,3.37,11.28,3.17S320.75,191.6,320.36,196.75Z" style="fill:#263238;stroke:#263238;stroke-linecap:round;stroke-linejoin:round"></path></g><g id="freepik--character-1--inject-2"><path d="M231.12,134.5s3.86,7.55,3.13,11.41-.74,7.36.55,9.38,3.86,3.13,2.57,4.6a15.24,15.24,0,0,1-3.86,2.76s-1.1,5-2,8.1-.74,3.68-4.05,4a27.46,27.46,0,0,1-5.15.19,203.86,203.86,0,0,1-2.58-21.53C218.61,139.29,231.12,134.5,231.12,134.5Z" style="fill:#4f2e11;stroke:#263238;stroke-linecap:round;stroke-linejoin:round"></path><path d="M232.52,152.16c0,1.25-.32,2.26-.72,2.26s-.73-1-.73-2.26.33-2.26.73-2.26S232.52,150.91,232.52,152.16Z" style="fill:#263238"></path><path d="M229.46,148.13s2.8-4.44,4.79-2.22" style="fill:none;stroke:#263238;stroke-linecap:round;stroke-linejoin:round"></path><path d="M232.52,166.2a4.68,4.68,0,0,1-3.22-1.62" style="fill:none;stroke:#263238;stroke-linecap:round;stroke-linejoin:round"></path><polygon points="246.02 223.55 236.27 236.43 233.88 228.7 242.71 218.21 246.02 223.55" style="fill:#4f2e11;stroke:#263238;stroke-linecap:round;stroke-linejoin:round"></polygon><path d="M252.46,208.28l5,3.31L244,226.35a2.44,2.44,0,0,1-3.75-.16h0a2.45,2.45,0,0,1,.05-3Z" style="fill:#263238;stroke:#263238;stroke-linecap:round;stroke-linejoin:round"></path><path d="M252.83,213.8s-1.66,2.39-.74,2.76,4.6,1.1,5.52.73,2.58-1.84,1.66-2.76S254.12,214,252.83,213.8Z" style="fill:#4f2e11;stroke:#263238;stroke-linecap:round;stroke-linejoin:round"></path><path d="M249.88,218.21s-1.65,2.39-.73,2.76,4.6,1.11,5.52.74,2.57-1.84,1.65-2.76S251.17,218.4,249.88,218.21Z" style="fill:#4f2e11;stroke:#263238;stroke-linecap:round;stroke-linejoin:round"></path><path d="M246.76,220.79s-1.66,2.39-.74,2.76,4.6,1.1,5.52.73,2.58-1.84,1.66-2.76S248,221,246.76,220.79Z" style="fill:#4f2e11;stroke:#263238;stroke-linecap:round;stroke-linejoin:round"></path><path d="M245,224.1s-1.24,1.8-.55,2.07,3.45.83,4.14.55,1.94-1.38,1.25-2.07S246,224.24,245,224.1Z" style="fill:#4f2e11;stroke:#263238;stroke-linecap:round;stroke-linejoin:round"></path><path d="M277.3,208.65s-5.34-7.55-9-12.7-9.5-7.73-14.9-5.15a9.58,9.58,0,0,0-4.78,11.77c1.65,4.6,6.25,7.92,8.83,9S271,215.45,271,215.45Z" style="fill:#878787;stroke:#263238;stroke-linecap:round;stroke-linejoin:round"></path><path d="M241.61,221.71s8.27-7.18,9-9.75a8.17,8.17,0,0,1,1.84-3.68c.74-1.11,2-4.23.37-6.44S250.8,205,249,207s-5.15,3.86-6.44,5-2.94,5.15-2.94,5.15l-1.65,6.07-2.76,3.5Z" style="fill:#4f2e11;stroke:#263238;stroke-linecap:round;stroke-linejoin:round"></path><path d="M274.35,220.05s-8.64-11.4-6.07-13.61,16,4.6,16,4.6Z" style="fill:#878787;stroke:#263238;stroke-linecap:round;stroke-linejoin:round"></path><path d="M198,251s-8.64,18.77-8.28,31.28,6.63,26.49,7.55,28.88,5.15,24.1,4.23,33.3-7.36,12.51-10.86,22.26-8.27,39.37-8.83,46.55-2.94,26.49-3.31,28.88-.37,5,1.29,5h28s1.84-.19,1.48-1.29S205,443,201.5,439.72s-9.75-7.36-10.12-10.12,2.39-14.72,5.34-21.53a71.31,71.31,0,0,1,7.54-12.87s13.61-24.1,16.92-44.53,9.94-54.08,9.94-54.08v-43Z" style="fill:#D96B8C;stroke:#263238;stroke-linecap:round;stroke-linejoin:round"></path><path d="M201.5,439.72c-3.5-3.31-9.75-7.36-10.12-10.12-.24-1.81.87-7.59,2.49-13.27l-12.18-1.68c-.71,8-2.84,25.21-3.19,27.46s-.37,5,1.29,5h28s1.84-.19,1.48-1.29S205,443,201.5,439.72Z" style="fill:#4f2e11;stroke:#263238;stroke-linecap:round;stroke-linejoin:round"></path><path d="M201.5,439.72c-2.28-2.16-5.72-4.63-7.95-6.85l-1.3,3.6s-8.86-.63-12.9-.88c-.41,3.26-.73,5.76-.85,6.52-.37,2.39-.37,5,1.29,5h28s1.84-.19,1.48-1.29S205,443,201.5,439.72Z" style="fill:#4f2e11;stroke:#263238;stroke-linecap:round;stroke-linejoin:round"></path><path d="M198.19,294.38l4.78,5.88s3.68,19.51,5,33.12S208.31,347,206.1,358,201,375,202.6,384.16s4.42,54.45,4.79,56.48-.53,5.7,1.5,6.44,32.53,0,32.53,0,2.21-2.4.92-3.5-11.63-4.42-16.23-8.1-6.56-4.92-6.93-7.13,1.45-34.26,4.76-47.5,7.18-36.43,9.75-48.21,5.16-26.12,3.32-53c-.49-7.06-2-10.12-2-11.41s-.37-13.79-.18-14.53S203,251.14,203,251.14" style="fill:#D96B8C;stroke:#263238;stroke-linecap:round;stroke-linejoin:round"></path><path d="M219.34,187.49s17.85,26.86,17.85,34.22,2,31.27-.55,32.38-18.95,1.84-25.21,1.1-12.87-2-14.53-4.05-2.46-2.64-3.2-10.37-4.52-26-4.7-36.33,14.52-22.1,19.67-21A48.72,48.72,0,0,1,219.34,187.49Z" style="fill:#4f2e11;stroke:#263238;stroke-linecap:round;stroke-linejoin:round"></path><path d="M233.15,133.71s.85,1.2-3.08,9.39-4.26,11.78-1.87,16.39a15.14,15.14,0,0,1-.34,14.52c-2.57,4.78-4.27,3.07-2.74,10.07S220,194,216.07,194s-9-7-12.46-4.43,1.54,9-2.05,11.44-14.51-.52-16.73-5,1.19-8-2.22-12.12-7.86-4.95-5.47-12.63,11.1-8.2,10.93-13.15-1-20.32,3.59-27.15,15.88-7.68,22.54-6.66S233.15,130.81,233.15,133.71Z" style="fill:#263238;stroke:#263238;stroke-linecap:round;stroke-linejoin:round"></path><path d="M264.05,236.53a2.49,2.49,0,0,1-1.79-4.24l7.27-7.45a2.5,2.5,0,0,1,3.58,3.49l-7.27,7.45A2.5,2.5,0,0,1,264.05,236.53Z" style="fill:#878787;stroke:#263238;stroke-linecap:round;stroke-linejoin:round"></path><path d="M271.32,230.59a4,4,0,0,1-2.87-6.8l15-15.36a4,4,0,1,1,5.72,5.58l-15,15.37A4,4,0,0,1,271.32,230.59Z" style="fill:#878787;stroke:#263238;stroke-linecap:round;stroke-linejoin:round"></path><polygon points="273.52 218.64 280.21 223.45 282.51 221.78 279.27 217.6 283.45 220.52 287.21 216.34 282.09 212.58 288.68 215.19 281.88 209.97 273.52 218.64" style="fill:#263238"></polygon><path d="M201.68,205.89s-4.78,7.72.55,27.41,14.91,32.19,14.91,32.19l46.17-22.26s5.71-.18,6.44-1.47,1.29-3.68,2-4.23,4.23-2.76,3.49-4.42-2.94-1.47-2.94-1.47L264.6,230s2.21-2.21,2.58-4.05-.92-3.13-2-1.84-1.28,1.29-3.49,3.68-2.58,6.62-3.13,8.09-3.31,3.68-5.15,4.42-27.23,3.86-27.23,3.86-5-25.39-7.91-32.38-8.46-13.79-11.41-13.24S201.68,205.89,201.68,205.89Z" style="fill:#4f2e11;stroke:#263238;stroke-linecap:round;stroke-linejoin:round"></path><path d="M226.11,435.48c-4.6-3.68-6.56-4.92-6.93-7.13-.13-.78,0-5.35.41-11.48h-14c.88,12,1.6,22.8,1.78,23.77.36,2-.53,5.7,1.5,6.44s32.53,0,32.53,0,2.21-2.4.92-3.5S230.71,439.16,226.11,435.48Z" style="fill:#4f2e11;stroke:#263238;stroke-linecap:round;stroke-linejoin:round"></path><path d="M241.42,447.08s2.21-2.4.92-3.5-11.63-4.42-16.23-8.1c-1.77-1.42-3.15-2.47-4.19-3.36-.11.28-.23.59-.36,1-.8,2.38-1.39,4.56-1.39,4.56L207,436.72c.17,2.18.29,3.6.35,3.92.36,2-.53,5.7,1.5,6.44S241.42,447.08,241.42,447.08Z" style="fill:#4f2e11;stroke:#263238;stroke-linecap:round;stroke-linejoin:round"></path></g><g id="freepik--plant-2--inject-2"><path d="M673.83,351c1.78.78,6.12.68,6.13.68s-.94-2.84-1-3c-1-2-4-5.28-6.42-4.95a2.92,2.92,0,0,0-2.35,3.67C670.58,349,672.32,350.3,673.83,351Z" style="fill:#263238"></path><path d="M675.33,363.55c1.84.27,5.72-.86,6-.95a52.51,52.51,0,0,0,2.35,6.51c.54,1.24,1.11,2.46,1.71,3.69-.36-.52-.68-1-.73-1-1.45-1.67-5.22-4.05-7.5-3.09a2.93,2.93,0,0,0-1.3,4.17c.84,1.53,2.86,2.28,4.49,2.52s5-.65,5.86-.9l.69,1.41c1.13,2.23,2.26,4.46,3.3,6.68.37.78.7,1.56,1,2.34-.32-.46-.59-.84-.64-.9-1.44-1.67-5.22-4.05-7.5-3.08a2.93,2.93,0,0,0-1.3,4.16c.85,1.53,2.86,2.29,4.49,2.53s4.66-.57,5.71-.86c.32.82.64,1.63.91,2.43.18.55.38,1.07.53,1.63s.31,1.1.46,1.65c.25,1.06.52,2.15.74,3.18.16.72.3,1.41.44,2.11-.35-.78-1.09-2.3-1.16-2.42-1.18-1.87-4.55-4.8-7-4.18a2.92,2.92,0,0,0-1.91,3.91c.6,1.64,2.47,2.7,4,3.18,1.74.53,5.59,0,6.07,0,.23,1.15.44,2.27.63,3.33.41,2.35.72,4.44,1,6.22h1.62c-.28-1.84-.65-4-1.14-6.48-.23-1.17-.5-2.42-.78-3.69a34.13,34.13,0,0,0,3.38-1.59,21.56,21.56,0,0,0,4.94,3.18c-.45,1.08-.89,2.14-1.32,3.12-.9,2.07-1.75,3.9-2.5,5.46h1.75c.65-1.44,1.36-3.07,2.1-4.89.46-1.1.92-2.28,1.38-3.51.47.1,4.28.88,6,.47,1.61-.36,3.56-1.27,4.29-2.86a2.94,2.94,0,0,0-1.62-4.05c-2.35-.79-5.93,1.87-7.24,3.65-.08.11-.79,1.34-1.23,2.13.19-.5.37-1,.56-1.51.37-1,.72-2.05,1.09-3.15.16-.54.33-1.09.49-1.64s.29-1.14.44-1.72c.32-1.34.58-2.71.81-4.1.89.33,4.09,1.44,5.74,1.32s3.72-.72,4.67-2.18a2.94,2.94,0,0,0-1-4.25c-2.2-1.14-6.15,1-7.72,2.52-.09.09-1.09,1.34-1.63,2,.13-.83.27-1.67.37-2.52.31-2.45.54-4.95.78-7.43.08-.77.16-1.52.24-2.28.32.12,4.08,1.52,5.94,1.39,1.65-.12,3.71-.72,4.66-2.19a2.91,2.91,0,0,0-1-4.24c-2.2-1.14-6.14.95-7.71,2.51-.12.12-1.55,1.91-1.9,2.39.18-1.67.37-3.34.63-5a51.5,51.5,0,0,1,1.43-6.54c.14.05,4.07,1.54,6,1.4,1.64-.11,3.71-.72,4.66-2.18a2.93,2.93,0,0,0-1-4.25c-2.2-1.13-6.15,1-7.71,2.52-.13.12-1.67,2.05-1.92,2.42,0-.12.06-.26.1-.38a37.56,37.56,0,0,1,2.59-6.19c.56-1.1,1.16-2.12,1.77-3.1.7.35,3.93,1.92,5.65,2s3.77-.31,4.88-1.66a2.94,2.94,0,0,0-.51-4.33c-2.07-1.37-6.22.27-7.94,1.65-.1.08-1,1-1.6,1.59.28-.44.57-.9.84-1.31,1-1.56,2.08-2.93,3-4.13.53-.68,1-1.28,1.51-1.84.87,0,4.37-.12,5.9-.84s3.2-2,3.57-3.72a2.93,2.93,0,0,0-2.45-3.61c-2.47-.26-5.39,3.11-6.29,5.13-.08.17-1,3-.93,3h.05c-.47.53-1,1.1-1.49,1.74-1,1.18-2,2.53-3.11,4.07a52.51,52.51,0,0,0-3.23,5.14A39.13,39.13,0,0,0,713,361.5s0,.05,0,.08c0-.73,0-2.75,0-2.91-.28-2.19-2.12-6.26-4.56-6.71a2.92,2.92,0,0,0-3.37,2.75c-.15,1.75,1.12,3.49,2.35,4.59,1.39,1.24,5.24,2.44,5.55,2.54a50.72,50.72,0,0,0-1.63,6.72c-.24,1.33-.43,2.67-.61,4,0-.62,0-1.18,0-1.26-.28-2.19-2.12-6.26-4.55-6.71a2.92,2.92,0,0,0-3.38,2.75c-.14,1.74,1.12,3.49,2.35,4.59s4.52,2.2,5.38,2.48c-.06.52-.13,1-.19,1.55-.3,2.49-.58,5-.94,7.39-.12.86-.28,1.69-.43,2.53,0-.56,0-1,0-1.1-.28-2.19-2.12-6.26-4.55-6.71a2.93,2.93,0,0,0-3.38,2.76c-.15,1.74,1.12,3.48,2.35,4.58s4.2,2.1,5.23,2.43c-.18.86-.36,1.71-.58,2.53-.16.56-.27,1.1-.46,1.65s-.35,1.09-.52,1.63c-.38,1-.75,2.08-1.14,3.07-.27.69-.53,1.34-.8,2,.14-.85.37-2.52.37-2.66a11.43,11.43,0,0,0-1.53-5.54,2.76,2.76,0,0,0,0-.64,2.93,2.93,0,0,0-3.58-2.49c-2.39.64-3.91,4.84-4,7.05,0,.13.08,1.55.14,2.44-.12-.52-.23-1-.36-1.56-.25-1.06-.53-2.1-.83-3.23-.16-.54-.33-1.09-.49-1.64s-.39-1.11-.58-1.67c-.48-1.3-1-2.59-1.59-3.87.92-.22,4.2-1.06,5.52-2.07s2.7-2.65,2.68-4.4a2.93,2.93,0,0,0-3.16-3c-2.46.27-4.6,4.19-5,6.36,0,.13-.17,1.72-.23,2.6-.35-.77-.7-1.54-1.08-2.31-1.1-2.22-2.28-4.42-3.45-6.63l-1.06-2c.33-.08,4.24-1,5.72-2.12,1.31-1,2.7-2.65,2.68-4.4a2.93,2.93,0,0,0-3.16-3c-2.46.27-4.6,4.19-5,6.36,0,.16-.25,2.45-.27,3-.77-1.49-1.53-3-2.22-4.49a52.75,52.75,0,0,1-2.42-6.24c.16,0,4.25-1,5.76-2.12,1.31-1,2.7-2.65,2.68-4.4a2.93,2.93,0,0,0-3.16-3c-2.46.27-4.6,4.19-5,6.36,0,.17-.26,2.63-.27,3.08,0-.13-.09-.25-.13-.38a39.28,39.28,0,0,1-1.25-6.59c-.14-1.22-.2-2.41-.23-3.56.78-.1,4.33-.57,5.81-1.46s3-2.34,3.15-4.08a2.93,2.93,0,0,0-2.81-3.33c-2.48,0-5,3.66-5.71,5.77,0,.11-.29,1.31-.46,2.19,0-.52,0-1.05,0-1.55,0-1.87.12-3.59.24-5.11.07-.86.15-1.64.24-2.36.72-.5,3.58-2.52,4.46-4s1.56-3.45.92-5.07a2.93,2.93,0,0,0-4-1.66c-2.2,1.14-2.78,5.57-2.42,7.75,0,.18.87,3.07.9,3l0,0c-.1.7-.2,1.45-.28,2.27-.15,1.52-.31,3.23-.35,5.11a52.56,52.56,0,0,0,.14,6.07,37.24,37.24,0,0,0,1.13,6.7.24.24,0,0,0,0,.08c-.39-.61-1.54-2.29-1.64-2.41-1.44-1.67-5.22-4.05-7.5-3.08a2.93,2.93,0,0,0-1.3,4.16C671.68,362.55,673.7,363.31,675.33,363.55Z" style="fill:#263238"></path><path d="M717.79,351.92s.79-2.89.81-3.08c.31-2.19-.39-6.6-2.62-7.68a2.94,2.94,0,0,0-4,1.77c-.59,1.64.16,3.66,1.06,5C714.1,349.6,717.78,351.92,717.79,351.92Z" style="fill:#263238"></path><polygon points="712.96 404.67 686.28 404.67 688.95 447.33 710.29 447.33 712.96 404.67" style="fill:#263238"></polygon></g><g id="freepik--plant-1--inject-2"><path d="M32.6,351c1.78.78,6.12.68,6.13.68s-.94-2.84-1-3c-1-2-4-5.28-6.42-4.95a2.92,2.92,0,0,0-2.35,3.67C29.35,349,31.09,350.3,32.6,351Z" style="fill:#263238"></path><path d="M34.1,363.55c1.84.27,5.72-.86,6-.95a52.51,52.51,0,0,0,2.35,6.51c.54,1.24,1.11,2.46,1.71,3.69-.36-.52-.68-1-.73-1-1.45-1.67-5.22-4.05-7.5-3.09a2.93,2.93,0,0,0-1.3,4.17c.84,1.53,2.86,2.28,4.49,2.52s5-.65,5.86-.9l.69,1.41c1.13,2.23,2.26,4.46,3.3,6.68.37.78.7,1.56,1,2.34-.32-.46-.59-.84-.64-.9-1.44-1.67-5.22-4.05-7.5-3.08a2.93,2.93,0,0,0-1.3,4.16c.85,1.53,2.86,2.29,4.49,2.53s4.66-.57,5.71-.86c.32.82.64,1.63.91,2.43.18.55.38,1.07.53,1.63s.31,1.1.46,1.65c.25,1.06.52,2.15.74,3.18.16.72.3,1.41.44,2.11-.35-.78-1.09-2.3-1.16-2.42-1.18-1.87-4.55-4.8-6.95-4.18a2.92,2.92,0,0,0-1.91,3.91c.6,1.64,2.47,2.7,4,3.18,1.74.53,5.59,0,6.07,0,.23,1.15.45,2.27.63,3.33.41,2.35.72,4.44,1,6.22h1.62c-.28-1.84-.65-4-1.14-6.48-.23-1.17-.5-2.42-.78-3.69A34.13,34.13,0,0,0,58.65,396a21.56,21.56,0,0,0,4.94,3.18c-.45,1.08-.89,2.14-1.32,3.12-.9,2.07-1.75,3.9-2.5,5.46h1.75c.65-1.44,1.36-3.07,2.1-4.89.46-1.1.92-2.28,1.38-3.51.47.1,4.28.88,6,.47,1.61-.36,3.56-1.27,4.29-2.86a2.94,2.94,0,0,0-1.62-4.05c-2.35-.79-5.93,1.87-7.24,3.65-.08.11-.79,1.34-1.23,2.13.19-.5.37-1,.56-1.51.38-1,.72-2.05,1.09-3.15.16-.54.33-1.09.49-1.64s.29-1.14.44-1.72c.32-1.34.58-2.71.81-4.1.89.33,4.09,1.44,5.74,1.32s3.72-.72,4.67-2.18a2.94,2.94,0,0,0-1-4.25c-2.2-1.14-6.15,1-7.72,2.52-.09.09-1.09,1.34-1.63,2,.13-.83.27-1.67.37-2.52.31-2.45.54-4.95.78-7.43l.24-2.28c.32.12,4.08,1.52,5.94,1.39,1.65-.12,3.71-.72,4.67-2.19a2.92,2.92,0,0,0-1-4.24c-2.2-1.14-6.14.95-7.71,2.51-.12.12-1.55,1.91-1.9,2.39.18-1.67.37-3.34.63-5a51.5,51.5,0,0,1,1.43-6.54c.14.05,4.07,1.54,6,1.4,1.64-.11,3.71-.72,4.66-2.18a2.93,2.93,0,0,0-1-4.25c-2.2-1.13-6.15,1-7.71,2.52-.13.12-1.67,2.05-1.92,2.42,0-.12.06-.26.1-.38a37.56,37.56,0,0,1,2.59-6.19c.56-1.1,1.16-2.12,1.77-3.1.7.35,3.93,1.92,5.65,2s3.77-.31,4.88-1.66a2.94,2.94,0,0,0-.51-4.33c-2.07-1.37-6.22.27-7.94,1.65-.1.08-1,1-1.6,1.59.28-.44.57-.9.84-1.31,1-1.56,2.08-2.93,3-4.13.53-.68,1-1.28,1.51-1.84.87,0,4.37-.12,5.9-.84s3.2-2,3.57-3.72a2.93,2.93,0,0,0-2.45-3.61c-2.47-.26-5.39,3.11-6.29,5.13-.08.17-1,3-.93,3h0c-.47.53-1,1.1-1.49,1.74-1,1.18-2,2.53-3.11,4.07a52.51,52.51,0,0,0-3.23,5.14,39.13,39.13,0,0,0-2.76,6.21s0,.05,0,.08c0-.73,0-2.75,0-2.91-.28-2.19-2.12-6.26-4.56-6.71a2.92,2.92,0,0,0-3.37,2.75c-.15,1.75,1.12,3.49,2.35,4.59,1.39,1.24,5.24,2.44,5.55,2.54a50.72,50.72,0,0,0-1.63,6.72c-.24,1.33-.43,2.67-.61,4,0-.62,0-1.18,0-1.26-.28-2.19-2.12-6.26-4.55-6.71a2.92,2.92,0,0,0-3.38,2.75c-.14,1.74,1.12,3.49,2.35,4.59s4.52,2.2,5.38,2.48c-.06.52-.13,1-.19,1.55-.3,2.49-.58,5-.94,7.39-.12.86-.28,1.69-.43,2.53,0-.56,0-1,0-1.1-.28-2.19-2.12-6.26-4.55-6.71a2.93,2.93,0,0,0-3.38,2.76c-.15,1.74,1.12,3.48,2.35,4.58s4.2,2.1,5.23,2.43c-.18.86-.36,1.71-.58,2.53-.15.56-.27,1.1-.46,1.65s-.35,1.09-.52,1.63c-.38,1-.75,2.08-1.14,3.07-.27.69-.53,1.34-.8,2,.14-.85.37-2.52.37-2.66a11.43,11.43,0,0,0-1.53-5.54,2.76,2.76,0,0,0,0-.64A2.93,2.93,0,0,0,59,387.4c-2.39.64-3.91,4.84-4,7.05,0,.13.08,1.55.14,2.44-.12-.52-.23-1-.36-1.56-.25-1.06-.53-2.1-.83-3.23-.16-.54-.33-1.09-.49-1.64s-.39-1.11-.58-1.67c-.47-1.3-1-2.59-1.59-3.87.92-.22,4.2-1.06,5.52-2.07s2.7-2.65,2.68-4.4a2.93,2.93,0,0,0-3.16-3c-2.46.27-4.6,4.19-5,6.36,0,.13-.18,1.72-.24,2.6-.35-.77-.7-1.54-1.08-2.31-1.1-2.22-2.28-4.42-3.45-6.63l-1.06-2c.33-.08,4.24-1,5.72-2.12,1.31-1,2.7-2.65,2.68-4.4a2.93,2.93,0,0,0-3.16-3c-2.46.27-4.6,4.19-5,6.36,0,.16-.24,2.45-.27,3-.77-1.49-1.53-3-2.22-4.49a52.75,52.75,0,0,1-2.42-6.24c.16,0,4.25-1,5.76-2.12,1.31-1,2.7-2.65,2.68-4.4a2.93,2.93,0,0,0-3.16-3c-2.46.27-4.6,4.19-5,6.36,0,.17-.26,2.63-.27,3.08,0-.13-.09-.25-.12-.38a38.35,38.35,0,0,1-1.26-6.59c-.14-1.22-.2-2.41-.23-3.56.78-.1,4.34-.57,5.81-1.46s3-2.34,3.15-4.08a2.93,2.93,0,0,0-2.81-3.33c-2.48,0-5,3.66-5.71,5.77,0,.11-.29,1.31-.46,2.19,0-.52,0-1.05,0-1.55,0-1.87.12-3.59.24-5.11.07-.86.15-1.64.24-2.36.72-.5,3.58-2.52,4.46-4s1.56-3.45.92-5.07a2.93,2.93,0,0,0-4-1.66c-2.2,1.14-2.78,5.57-2.42,7.75,0,.18.87,3.07.9,3l0,0c-.1.7-.19,1.45-.28,2.27-.15,1.52-.31,3.23-.35,5.11a52.56,52.56,0,0,0,.14,6.07,37.24,37.24,0,0,0,1.13,6.7.24.24,0,0,0,0,.08c-.39-.61-1.54-2.29-1.64-2.41-1.44-1.67-5.22-4.05-7.5-3.08a2.93,2.93,0,0,0-1.3,4.16C30.45,362.55,32.47,363.31,34.1,363.55Z" style="fill:#263238"></path><path d="M76.56,351.92s.79-2.89.81-3.08c.31-2.19-.39-6.6-2.62-7.68a2.94,2.94,0,0,0-4,1.77c-.59,1.64.16,3.66,1.06,5C72.87,349.6,76.55,351.92,76.56,351.92Z" style="fill:#263238"></path><polygon points="71.73 404.67 45.05 404.67 47.72 447.33 69.07 447.33 71.73 404.67" style="fill:#263238"></polygon></g><g id="freepik--Floor--inject-2"><line x1="731.51" y1="447.33" x2="19.48" y2="447.33" style="fill:none;stroke:#263238;stroke-linecap:round;stroke-linejoin:round"></line></g></svg>