<svg xmlns="http://www.w3.org/2000/svg" viewBox="0 0 500 500"><g id="freepik--background-simple--inject-7"><path d="M394.73,153.17l-2-3.28c-16.78-27.65-47.12-44.32-79.11-42.3a83,83,0,0,0-12.24,1.68c-29.09,6.22-54.39,28.22-64.88,56.39-6.17,16.56-7.89,35.63-19.6,48.78-15.24,17.12-41.1,17.65-63.85,16.94s-48.62-.1-63.78,17.08c-9.5,10.76-12.52,26.06-11.75,40.47,2,38.15,28.61,72.26,62.42,89.22s73.61,18.47,110.61,11C302.39,378.71,351.68,350,381.31,305.7S418.44,201,394.73,153.17Z" style="fill:#f5f5f5"></path></g><g id="freepik--Table--inject-7"><path d="M466,475c0,.15-96.71.27-216,.27s-216-.12-216-.27,96.68-.26,216-.26S466,474.84,466,475Z" style="fill:#263238"></path></g><g id="freepik--Mascara--inject-7"><path d="M433.76,280.72c-1.23-3.73,31-21.3,33.21-17.62S435.49,286,433.76,280.72Z" style="fill:#263238"></path><path d="M436.36,280.27c-5.9-1.79-7.23-4.1,1.09-1.08Z" style="fill:#263238"></path><path d="M463.27,265c.44-5.34,2.77-8.08,1.57-.13Z" style="fill:#263238"></path><path d="M464.36,265.19c2.3-5.5,5.34-7.9,1.43.17Z" style="fill:#263238"></path><path d="M435.85,278.59c-5-2.71-5.66-5.3,1.29-1Z" style="fill:#263238"></path><path d="M461.92,264.5c-1.93-4.63-.73-7.54,1.58-.51Z" style="fill:#263238"></path><path d="M437.23,277.37c-6-3.4-6.62-6.6,1.67-1.16Z" style="fill:#263238"></path><path d="M438.87,276c-5.41-3.89-5.63-7.2,1.75-1.07Z" style="fill:#263238"></path><path d="M441.12,274.62c-5.17-4.06-5.24-7.41,1.79-1Z" style="fill:#263238"></path><path d="M442.92,273.36c-4.53-4.51-4.2-7.94,1.85-.94Z" style="fill:#263238"></path><path d="M445.26,271.77c-5.05-4.16-5-7.52,1.8-1Z" style="fill:#263238"></path><path d="M447.08,270.52c-4.4-4.59-4-8,1.86-.92Z" style="fill:#263238"></path><path d="M449.5,269.35c-4.14-4.75-3.58-8.22,1.89-.88Z" style="fill:#263238"></path><path d="M451.45,268.23c-3.45-5.14-2.49-8.64,1.93-.77Z" style="fill:#263238"></path><path d="M453.81,267.08c-3.15-5.3-2-8.81,1.95-.73Z" style="fill:#263238"></path><path d="M455.85,266.11c-2.42-5.62-.9-9.14,2-.61Z" style="fill:#263238"></path><path d="M458.85,265.27c-2.42-5.63-.91-9.15,2-.61Z" style="fill:#263238"></path><path d="M435.84,279.42c-.89,5.44.84,7.58,1.61-.35Z" style="fill:#263238"></path><path d="M463.78,265.58c5.63,2.18,9.49,1.65.86-1.16Z" style="fill:#263238"></path><path d="M464.07,264.64c6.64.79,10.48-.46.48-1.21Z" style="fill:#263238"></path><path d="M437.31,280.6c.45,5.18,2.78,6.92,1.57-.56Z" style="fill:#263238"></path><path d="M463.63,266.86c3.82,3.69,7.33,4.12,1.25-1Z" style="fill:#263238"></path><path d="M439.19,280.1c.7,6.28,3.65,8.28,1.95-.76Z" style="fill:#263238"></path><path d="M441.35,279.47c1.46,6,4.72,7.78,1.89-.87Z" style="fill:#263238"></path><path d="M443.77,278.35c1.75,5.95,5.12,7.58,1.88-.91Z" style="fill:#263238"></path><path d="M445.88,277.54c2.5,5.66,6.14,7,1.81-1Z" style="fill:#263238"></path><path d="M448.58,276.46c1.9,5.9,5.32,7.48,1.86-.92Z" style="fill:#263238"></path><path d="M450.68,275.63c2.65,5.6,6.33,6.89,1.8-1Z" style="fill:#263238"></path><path d="M453,274.29c2.91,5.47,6.69,6.66,1.76-1.06Z" style="fill:#263238"></path><path d="M455,273.29c3.64,5.11,7.64,6,1.68-1.15Z" style="fill:#263238"></path><path d="M457.29,272c3.92,4.95,8,5.73,1.63-1.18Z" style="fill:#263238"></path><path d="M459.21,270.85c4.6,4.54,8.87,5,1.53-1.26Z" style="fill:#263238"></path><path d="M461.44,268.9c4.61,4.54,8.88,5,1.53-1.26Z" style="fill:#263238"></path><rect x="391.7" y="286.56" width="52.09" height="3.6" transform="translate(-81.75 197.99) rotate(-24.36)" style="fill:#263238"></rect><polygon points="414.8 300.55 370.29 316.87 364.57 304.23 405.83 282.41 414.8 300.55" style="fill:#455a64"></polygon></g><g id="freepik--Lipstick--inject-7"><path d="M375.68,236.57c.38-.27,8.58-6.67,8.58-6.67l14.89,20.43-13.09,9.87-9.22-8.89L373,241.05Z" style="fill:#D96B8C"></path><path d="M447,197c7.29,1.12,6.37,4.54,3.61,8.39-14.72-.1-18.39-5.07-13.65-8.38l0-.08A28.23,28.23,0,0,1,447,197Z" style="fill:#D96B8C"></path><path d="M398.71,250.65l-1.08.78c-1.94,1.42-6.86-2-11-7.64s-5.86-11.38-3.91-12.8l1.07-.78,31-22.52c-1.86,1.35,0,7,4.08,12.67s8.93,9.12,10.79,7.77Z" style="fill:#263238"></path><path d="M390.8,256.72,364.49,276a6.63,6.63,0,0,1-2,.53h0c-2.81-.14-6.8-3-10-7.41s-4.75-9.29-3.93-12a6.25,6.25,0,0,1,1.07-1.59l26.45-19.24c-.1.51-.18,1-.26,1.54-.22,2.59,1.43,6.87,4.46,11s6.61,7.05,9.14,7.64h0C389.89,256.59,390.35,256.67,390.8,256.72Z" style="fill:#263238"></path><path d="M447,197c7.29,1.12,6.37,4.54,3.61,8.39-14.72-.1-18.39-5.07-13.65-8.38l0-.08A28.23,28.23,0,0,1,447,197Z" style="fill:#fff;opacity:0.30000000000000004"></path><path d="M437,197c-4.74,3.31-1.07,8.28,13.65,8.38-2.64,3.68-13.82,14.36-20.39,19.55-.61.48-1.17.91-1.68,1.28-1.33,1-5.15-2-8.54-6.69s-5.08-9.23-3.75-10.2c.5-.36,1.06-.76,1.69-1.19,4.58-3.16,12.28-8.05,15.87-10.06a11.42,11.42,0,0,1,3.13-1.15Z" style="fill:#D96B8C"></path><path d="M429.66,228.13c-1.86,1.35-6.69-2.13-10.79-7.77s-5.94-11.32-4.08-12.67c.69-.51,1.81-.33,3.16.37l0,.06c-.63.43-1.19.83-1.69,1.19-1.33,1,.36,5.53,3.75,10.2s7.21,7.65,8.54,6.69c.51-.37,1.07-.8,1.68-1.28C430.55,226.46,430.37,227.61,429.66,228.13Z" style="fill:#455a64"></path><rect x="396.48" y="212.57" width="3.32" height="27.21" rx="1.35" transform="translate(341.94 -228.26) rotate(53.35)" style="fill:#fff;opacity:0.30000000000000004"></rect><rect x="370.57" y="241.79" width="3.32" height="3.91" rx="1.35" transform="translate(345.58 -200.39) rotate(53.35)" style="fill:#fff;opacity:0.30000000000000004"></rect><path d="M443.6,205.41a6.29,6.29,0,0,1-1.85-.22,9.75,9.75,0,0,1-4.15-1.79,5.44,5.44,0,0,1-1.6-2,4.45,4.45,0,0,1-.41-2,2.4,2.4,0,0,1,.64-1.77,7.45,7.45,0,0,0-.28,1.77,4.49,4.49,0,0,0,.48,1.83,5.63,5.63,0,0,0,1.49,1.79,11.24,11.24,0,0,0,3.92,1.83A7.07,7.07,0,0,1,443.6,205.41Z" style="fill:#fff"></path></g><g id="freepik--Rouge--inject-7"><circle cx="387.92" cy="102.47" r="42.54" transform="translate(181.94 446.79) rotate(-73.91)" style="fill:#455a64"></circle><rect x="358.89" y="138.18" width="8.35" height="2.43" transform="translate(47.92 367.27) rotate(-56.87)" style="fill:#263238"></rect><rect x="362.72" y="140.3" width="8.35" height="2.42" transform="translate(47.79 371.32) rotate(-56.85)" style="fill:#263238"></rect><circle cx="387.59" cy="102.25" r="37.8" transform="translate(-12.91 85.48) rotate(-12.38)" style="fill:#fff"></circle><path d="M356.59,82.35c14-19,36.63-20.95,53.58-4.7,16,15.35,19.45,35.3,2,52.38-14.71,14.37-38.68,8.71-47.41.62S342.54,101.42,356.59,82.35Z" style="fill:#f5f5f5"></path><path d="M410.51,77.87C397,64.93,379.9,63.55,366.43,73.11A42.12,42.12,0,0,1,384,84.52c14.22,15.32,15.05,37.67,1.85,49.93a28.06,28.06,0,0,1-5,3.73c10.29,2.14,22.69.83,31.65-7.93C430,113.17,426.53,93.22,410.51,77.87Z" style="fill:#fff"></path><ellipse cx="341.69" cy="177.53" rx="42.54" ry="45.32" transform="translate(5.26 364.84) rotate(-56.56)" style="fill:#455a64"></ellipse><path d="M310.19,156.09c14.94-18.57,37.36-20.23,55.7-4.9,17.69,14.8,20.21,36.69,2,54.45-15.29,14.93-36.57,10.38-48.56,1.71C308.5,199.51,294.89,175.11,310.19,156.09Z" style="fill:#ffbf9d"></path><path d="M374.35,198c11.53-16.61,6.42-34.5-8.34-46.72-18.6-15.41-41.12-14-55.9,4.18-.37.46-2.32,4.16-2.66,4.62Z" style="fill:#ff9a6c"></path><g style="opacity:0.30000000000000004"><path d="M371.14,179.32c.7,0,1.36,1,1.72,2.87a18.07,18.07,0,0,1-.55,7.87,27.68,27.68,0,0,1-5.54,10.51,29,29,0,0,1-26.93,10.25,27.84,27.84,0,0,1-11.13-4.15,18.39,18.39,0,0,1-5.65-5.51c-1-1.63-1.12-2.79-.62-3.28,1.09-1.07,4.32.77,9.4,2.12a35.2,35.2,0,0,0,8.87,1.27A26.56,26.56,0,0,0,359.76,194a35.57,35.57,0,0,0,5.78-6.84C368.44,182.78,369.62,179.26,371.14,179.32Z" style="fill:#fff"></path></g></g><g id="freepik--brush-3--inject-7"><path d="M274.14,139.93h0a7.42,7.42,0,0,1-5.37-9l13.81-54.36L297,80.2l-13.81,54.36A7.42,7.42,0,0,1,274.14,139.93Z" style="fill:#455a64"></path><path d="M282.66,65.33c-1.65-3.74-6.37-31.59-4.39-35.16,6.43-1.54,40.92,12.47,43,18.21-2.81,5.26-20,24.17-20,24.17Z" style="fill:#ae7461"></path><path d="M295.31,47.19a45.66,45.66,0,0,1,3.84-11.56c-9-3.57-17.91-6.17-20.88-5.46-2,3.57,2.74,31.42,4.39,35.16l14.91,5.8C294.61,64.6,293.61,56.09,295.31,47.19Z" style="fill:#6f4439"></path><path d="M278.27,30.17c3.93,3.38,27.78,16.72,43,18.21C320.77,43.78,288.94,27.16,278.27,30.17Z" style="fill:#ae7461"></path><path d="M289.2,35.84s.47,6.32,1.06,7.64,1.7-6.39,1.7-6.39Z" style="fill:#ae7461"></path><polygon points="302.35 71.47 282.16 65.47 280.21 80.52 296.8 85.13 302.35 71.47" style="fill:#e0e0e0"></polygon></g><g id="freepik--brush-2--inject-7"><path d="M220.25,80.66l2.48,69.66a3.24,3.24,0,1,0,6.46-.23l-2.48-69.66Z" style="fill:#455a64"></path><polygon points="224.56 55.27 219.81 55.44 220.26 81.06 226.72 80.83 224.56 55.27" style="fill:#e0e0e0"></polygon><polygon points="220.87 31.5 221.79 31.46 224.56 55.27 219.81 55.44 220.87 31.5" style="fill:#263238"></polygon><rect x="211.88" y="53.12" width="10.07" height="0.89" transform="translate(-1.77 7.75) rotate(-2.04)" style="fill:#263238"></rect><rect x="211.83" y="51.84" width="10.07" height="0.89" transform="translate(-1.72 7.75) rotate(-2.04)" style="fill:#263238"></rect><rect x="211.79" y="50.57" width="10.07" height="0.89" transform="matrix(1, -0.04, 0.04, 1, -1.68, 7.75)" style="fill:#263238"></rect><rect x="211.74" y="49.29" width="10.07" height="0.89" transform="translate(-1.63 7.75) rotate(-2.04)" style="fill:#263238"></rect><rect x="211.69" y="48.01" width="10.07" height="0.89" transform="translate(-1.58 7.73) rotate(-2.04)" style="fill:#263238"></rect><rect x="211.65" y="46.73" width="10.07" height="0.89" transform="translate(-1.54 7.76) rotate(-2.04)" style="fill:#263238"></rect><rect x="211.6" y="45.45" width="10.07" height="0.89" transform="translate(-1.5 7.73) rotate(-2.04)" style="fill:#263238"></rect><rect x="211.56" y="44.17" width="10.07" height="0.89" transform="translate(-1.45 7.74) rotate(-2.04)" style="fill:#263238"></rect><rect x="211.51" y="42.9" width="10.07" height="0.89" transform="translate(-1.4 7.73) rotate(-2.04)" style="fill:#263238"></rect><rect x="211.47" y="41.62" width="10.07" height="0.89" transform="translate(-1.36 7.73) rotate(-2.04)" style="fill:#263238"></rect><rect x="211.42" y="40.34" width="10.07" height="0.89" transform="translate(-1.32 7.74) rotate(-2.04)" style="fill:#263238"></rect><rect x="211.38" y="39.06" width="10.07" height="0.89" transform="translate(-1.27 7.74) rotate(-2.04)" style="fill:#263238"></rect><rect x="211.33" y="37.78" width="10.07" height="0.89" transform="translate(-1.22 7.71) rotate(-2.04)" style="fill:#263238"></rect><rect x="211.28" y="36.5" width="10.07" height="0.89" transform="translate(-1.18 7.73) rotate(-2.04)" style="fill:#263238"></rect><rect x="211.24" y="35.22" width="10.07" height="0.89" transform="translate(-1.13 7.73) rotate(-2.04)" style="fill:#263238"></rect><rect x="211.19" y="33.94" width="10.07" height="0.89" transform="translate(-1.09 7.73) rotate(-2.04)" style="fill:#263238"></rect><rect x="211.15" y="32.66" width="10.07" height="0.89" transform="translate(-1.04 7.72) rotate(-2.04)" style="fill:#263238"></rect><rect x="221.22" y="32.34" width="8.17" height="1.36" transform="translate(-1.03 8.04) rotate(-2.04)" style="fill:#263238"></rect><rect x="221.31" y="34.84" width="8.17" height="1.35" transform="translate(-1.12 8.05) rotate(-2.04)" style="fill:#263238"></rect><rect x="221.39" y="37.34" width="8.17" height="1.35" transform="matrix(1, -0.04, 0.04, 1, -1.21, 8.05)" style="fill:#263238"></rect><rect x="221.48" y="39.84" width="8.17" height="1.35" transform="translate(-1.3 8.06) rotate(-2.04)" style="fill:#263238"></rect><rect x="221.57" y="42.34" width="8.17" height="1.36" transform="translate(-1.39 8.06) rotate(-2.04)" style="fill:#263238"></rect><rect x="221.66" y="44.84" width="8.17" height="1.35" transform="translate(-1.48 8.07) rotate(-2.04)" style="fill:#263238"></rect><rect x="221.75" y="47.34" width="8.17" height="1.35" transform="translate(-1.57 8.07) rotate(-2.04)" style="fill:#263238"></rect><rect x="221.84" y="49.84" width="8.17" height="1.35" transform="translate(-1.66 8.08) rotate(-2.04)" style="fill:#263238"></rect><rect x="221.93" y="52.34" width="8.17" height="1.36" transform="translate(-1.74 8.08) rotate(-2.04)" style="fill:#263238"></rect></g><g id="freepik--brush-1--inject-7"><path d="M149,76.31c-8-8.65-12.74-8.39-14.16-7.29s-2.82,5.61,3.61,15.52c2.23,3.41,4.15,4,7.79,6l3.33-2.6,3-2.31C151.45,81.58,151.75,79.3,149,76.31Z" style="fill:#263238"></path><path d="M168.64,116.91l28.57,36.65a2.77,2.77,0,1,0,4.36-3.4L173,113.51Z" style="fill:#455a64"></path><polygon points="152.46 85.39 146.02 90.4 168.85 117.18 173.21 113.78 152.46 85.39" style="fill:#e0e0e0"></polygon></g><g id="freepik--Makeup--inject-7"><path d="M95.69,119.18c.86,1.48-3.17,5.41-9,8.76s-11.24,4.88-12.09,3.39,3.17-5.4,9-8.76S94.84,117.7,95.69,119.18Z" style="fill:#fafafa"></path><path d="M82.55,135.4s-5.86-1.35-8.24-4.4l21.62-11.56,7.17,8.32L87.72,141Z" style="fill:#f5f5f5"></path><path d="M74.51,130.9a1.05,1.05,0,0,1,0-.51,4,4,0,0,1,.66-1.29,19.36,19.36,0,0,1,3.9-3.77,44.76,44.76,0,0,1,7-4.35A35.19,35.19,0,0,1,90.77,119a14.74,14.74,0,0,1,2.64-.62,5,5,0,0,1,1.45,0l.38.1a3.35,3.35,0,0,1,.37.2,2.35,2.35,0,0,1,.3.33s0,0,.06,0a.46.46,0,0,1,.21.31l-.06-.14,7.14,8.28,0,0,.17.2-.19.17-15.41,13.2-.16.14-.14-.15-5.13-5.63.08,0A21.57,21.57,0,0,1,77,133.3a9.13,9.13,0,0,1-2.13-1.7h0c-.19-.21-.21-.25-.2-.25l.23.22h0a13.75,13.75,0,0,0,2.2,1.55,22.38,22.38,0,0,0,5.54,2.12h0l0,0,5.19,5.56-.3,0,15.36-13.27,0,.37,0,0-7.13-8.29.06-.15c-.11.09-.11.09-.32-.14-.07-.07-.1-.13-.17-.19l-.25-.13-.29-.08a4.72,4.72,0,0,0-1.3,0,13.6,13.6,0,0,0-2.56.58,34.18,34.18,0,0,0-4.58,1.87,46.3,46.3,0,0,0-7,4.22,20.28,20.28,0,0,0-4,3.62,4.15,4.15,0,0,0-.72,1.22A4.35,4.35,0,0,0,74.51,130.9Z" style="fill:#263238"></path><path d="M117.48,141.55l-7.76,6.67-2.5,2.16-7.76,6.67c2.71,5.87-5.63,12.17-5.63,12.17l66.58,77.36a9.8,9.8,0,0,0,13.83,1l9.57-8.24,2.51-2.16L195.9,229a9.81,9.81,0,0,0,1-13.83l-66.58-77.36S122.88,145.1,117.48,141.55Z" style="fill:#f5f5f5"></path><path d="M154.6,239.83,93.83,169.22s8-6.69,5.63-12.17l10.26-8.83L180,229.86l-12.08,10.4C163.8,243.79,157.84,243.6,154.6,239.83Z" style="fill:#ff9a6c"></path><path d="M191.12,208.4l-61.07-71s-7.51,7.27-12.57,4.11l-10.26,8.83L177.48,232l12.08-10.4C193.66,218.08,194.36,212.17,191.12,208.4Z" style="fill:#ff9a6c"></path><path d="M130.31,137.74s-.12-.12-.34-.37L129,136.3l-3.62-4.14L112.21,117l-9.06-10.47a11.64,11.64,0,0,0-1.27-1.35,5.42,5.42,0,0,0-1.57-.94,5.74,5.74,0,0,0-3.71-.13,5.88,5.88,0,0,0-1.7.89c-.51.39-1,.87-1.54,1.3L90.21,109,76.86,120.51l-7.06,6.08L68,128.14a16.44,16.44,0,0,0-1.72,1.59A5.54,5.54,0,0,0,65.06,134a5.47,5.47,0,0,0,1.17,2.7c.65.78,1.34,1.56,2,2.34l4,4.62q3.94,4.58,7.69,9C84.89,158.46,89.61,164,94,169l-.32,0,26.48-22.63,7.49-6.37,2-1.68.52-.43.19-.15-.15.15-.48.44c-.46.39-1.1,1-1.93,1.69l-7.37,6.42L93.94,169.35l-.17.15-.15-.18L79.51,153c-2.5-2.9-5.07-5.89-7.7-8.93l-4-4.62c-.67-.78-1.35-1.55-2-2.36a6.08,6.08,0,0,1,.06-7.66,16.23,16.23,0,0,1,1.79-1.66l1.8-1.54,7.06-6.08L89.9,108.64l3.15-2.71c.53-.44,1-.89,1.57-1.32a6,6,0,0,1,1.85-1,6.15,6.15,0,0,1,4,.15,5.77,5.77,0,0,1,1.7,1,12.3,12.3,0,0,1,1.31,1.41c3.26,3.8,6.29,7.35,9.06,10.59,5.51,6.45,10,11.68,13.06,15.32l3.52,4.15.9,1.08Z" style="fill:#263238"></path><path d="M92.9,164.71c-.11.09-5.61-6.11-12.28-13.86s-12-14.11-11.88-14.2,5.61,6.11,12.28,13.86S93,164.62,92.9,164.71Z" style="fill:#263238"></path><rect x="89.6" y="134.2" width="27" height="18.1" rx="2.12" transform="translate(-68.49 101.93) rotate(-40.72)" style="fill:#e0e0e0"></rect><rect x="84.62" y="133.46" width="22.6" height="4.19" rx="1.47" transform="translate(-65.21 95.38) rotate(-40.72)" style="fill:#e0e0e0"></rect><path d="M106.58,128.16c.09.11-4,3.77-9.09,8.17s-9.34,7.88-9.44,7.77,4-3.76,9.1-8.17S106.48,128.05,106.58,128.16Z" style="fill:#263238"></path><path d="M102.15,127.3a97.5,97.5,0,0,1-7.57,6.86,96.91,96.91,0,0,1-7.91,6.46c-.09-.11,3.3-3.18,7.57-6.86A101.09,101.09,0,0,1,102.15,127.3Z" style="fill:#263238"></path><path d="M118.51,142c.09.11-4.06,3.84-9.28,8.33s-9.53,8.05-9.62,7.94,4.06-3.84,9.28-8.33S118.41,141.91,118.51,142Z" style="fill:#263238"></path><path d="M130.35,137.79s.17.16.47.5.74.85,1.32,1.49l5,5.79c4.38,5.05,10.69,12.34,18.48,21.35L183,198.62q3.87,4.49,7.91,9.17l4.08,4.74,2.07,2.4a10.87,10.87,0,0,1,1.72,2.78,10.18,10.18,0,0,1,.4,6.52,10.57,10.57,0,0,1-3.75,5.47l-10.21,8.79L175,247.28a10.54,10.54,0,0,1-6,2.89,10.15,10.15,0,0,1-6.39-1.36,11,11,0,0,1-2.5-2.11l-2.07-2.41L154,239.55l-7.89-9.18-27.28-31.78-18.35-21.46c-2.15-2.53-3.83-4.49-5-5.85l-1.29-1.53c-.28-.34-.42-.53-.42-.53s.16.16.46.5l1.32,1.5,5,5.78c4.37,5.06,10.68,12.34,18.48,21.35l27.36,31.71,7.91,9.16q2,2.35,4.08,4.74c1.41,1.57,2.62,3.36,4.44,4.41a9.64,9.64,0,0,0,6.07,1.29,10.1,10.1,0,0,0,5.69-2.77q5-4.33,10.21-8.79l10.21-8.79a10,10,0,0,0,3.59-5.21,9.68,9.68,0,0,0-.38-6.2c-.76-2-2.36-3.42-3.7-5l-4.07-4.74c-2.69-3.13-5.32-6.2-7.89-9.18l-27.28-31.78L137,145.7l-5-5.85-1.29-1.53C130.49,138,130.35,137.79,130.35,137.79Z" style="fill:#263238"></path><path d="M188.73,222.33c.09.11-4.31,4-9.83,8.8s-10.07,8.52-10.17,8.41,4.31-4,9.83-8.8S188.63,222.22,188.73,222.33Z" style="fill:#263238"></path><path d="M150.84,219.94h0a4.26,4.26,0,0,1-6-.45l-39-45.29a4.25,4.25,0,0,1,.45-6h0a4.26,4.26,0,0,1,6,.45l39,45.28A4.25,4.25,0,0,1,150.84,219.94Z" style="fill:#fff;opacity:0.30000000000000004"></path><path d="M160.09,225.29a3.52,3.52,0,1,1-5-.37A3.52,3.52,0,0,1,160.09,225.29Z" style="fill:#fff;opacity:0.30000000000000004"></path><path d="M77.47,131.45c-.06,0-.1-.28.23-.49a.65.65,0,0,1,.67,0,.72.72,0,0,1-.33,1.32.65.65,0,0,1-.6-.29c-.2-.34,0-.57,0-.54s.09.19.25.3a.3.3,0,0,0,.25.06.35.35,0,0,0,.21-.2.32.32,0,0,0-.09-.27.31.31,0,0,0-.25-.07C77.65,131.33,77.54,131.47,77.47,131.45Z" style="fill:#263238"></path><path d="M96.16,120a19.43,19.43,0,0,1-2.93,1.74c-1.84,1-4.41,2.35-7.29,3.77s-5.51,2.64-7.43,3.49a21.45,21.45,0,0,1-3.16,1.27,22.29,22.29,0,0,1,3-1.6l7.36-3.63,7.36-3.63A24.53,24.53,0,0,1,96.16,120Z" style="fill:#263238"></path></g><g id="freepik--eye-shadows--inject-7"><path d="M77.26,215c1.89-2.27,4.68-3.06,6.23-1.78L153.09,271c1.55,1.29,1.28,4.18-.6,6.45L119.68,317c-1.89,2.27-4.67,3.07-6.22,1.78L43.85,261c-1.55-1.29-1.28-4.17.61-6.44Z" style="fill:#455a64"></path><path d="M102.78,286.77a10.29,10.29,0,1,1,1.34,14.49A10.28,10.28,0,0,1,102.78,286.77Z" style="fill:#D96B8C"></path><path d="M81.67,269.24A10.29,10.29,0,1,1,83,283.74,10.29,10.29,0,0,1,81.67,269.24Z" style="fill:#ff9a6c"></path><path d="M60.56,251.72a10.29,10.29,0,1,1,1.34,14.49A10.28,10.28,0,0,1,60.56,251.72Z" style="fill:#ffbf9d"></path><path d="M119.69,266.4A10.29,10.29,0,1,1,121,280.89,10.27,10.27,0,0,1,119.69,266.4Z" style="fill:#263238"></path><path d="M98.58,248.87a10.29,10.29,0,1,1,1.35,14.49A10.29,10.29,0,0,1,98.58,248.87Z" style="fill:#e0e0e0"></path><path d="M77.47,231.35a10.29,10.29,0,1,1,1.35,14.49A10.28,10.28,0,0,1,77.47,231.35Z" style="fill:#fafafa"></path><path d="M117.25,288.06a10.27,10.27,0,0,0-16.76,6.55,10.28,10.28,0,1,1,20.39.09A10.22,10.22,0,0,0,117.25,288.06Z" style="opacity:0.30000000000000004"></path><path d="M102.6,293.71c1.28-1.54,4.46-1,7.1,1.2s3.76,5.22,2.49,6.76-4.46,1-7.1-1.2S101.33,295.25,102.6,293.71Z" style="fill:#fff;opacity:0.2"></path><path d="M96.15,270.53a10.28,10.28,0,0,0-16.76,6.56,10.28,10.28,0,1,1,20.39.09A10.31,10.31,0,0,0,96.15,270.53Z" style="opacity:0.30000000000000004"></path><path d="M81.5,276.18c1.27-1.53,4.45-1,7.1,1.2s3.76,5.23,2.48,6.76-4.46,1-7.1-1.2S80.22,277.72,81.5,276.18Z" style="fill:#fff;opacity:0.2"></path><path d="M75,253a10.27,10.27,0,0,0-16.76,6.56,10.28,10.28,0,1,1,20.39.08A10.22,10.22,0,0,0,75,253Z" style="opacity:0.30000000000000004"></path><path d="M60.39,258.66c1.27-1.54,4.45-1,7.1,1.2s3.76,5.22,2.49,6.76-4.46,1-7.11-1.2S59.11,260.2,60.39,258.66Z" style="fill:#fff;opacity:0.2"></path><path d="M134.17,267.68a10.29,10.29,0,0,0-16.77,6.56,10.28,10.28,0,1,1,20.4.09A10.31,10.31,0,0,0,134.17,267.68Z" style="opacity:0.30000000000000004"></path><path d="M119.52,273.34c1.27-1.54,4.45-1,7.1,1.19s3.76,5.23,2.48,6.77-4.46,1-7.1-1.2S118.24,274.87,119.52,273.34Z" style="fill:#fff;opacity:0.2"></path><path d="M113.06,250.16a10.28,10.28,0,0,0-16.76,6.56,10.28,10.28,0,1,1,20.39.09A10.22,10.22,0,0,0,113.06,250.16Z" style="opacity:0.30000000000000004"></path><path d="M98.41,255.82c1.28-1.54,4.45-1,7.1,1.19s3.76,5.22,2.48,6.76-4.45,1-7.1-1.2S97.13,257.35,98.41,255.82Z" style="fill:#fff;opacity:0.2"></path><path d="M92,232.64a10.27,10.27,0,0,0-16.77,6.56,10.28,10.28,0,1,1,20.39.08A10.23,10.23,0,0,0,92,232.64Z" style="opacity:0.30000000000000004"></path><path d="M77.3,238.29c1.28-1.54,4.46-1,7.11,1.2s3.75,5.22,2.48,6.76-4.46,1-7.1-1.2S76,239.82,77.3,238.29Z" style="fill:#fff"></path><rect x="70" y="246.25" width="8.53" height="97.77" transform="translate(-200.25 163.75) rotate(-50.3)" style="fill:#455a64"></rect><rect x="99.65" y="305.34" width="2.6" height="9.44" transform="translate(-202.09 189.67) rotate(-50.3)" style="fill:#263238"></rect><rect x="53.4" y="266.94" width="2.6" height="9.44" transform="translate(-189.25 140.21) rotate(-50.3)" style="fill:#263238"></rect></g><g id="freepik--Character--inject-7"><path d="M193.82,202.25c-3.16,4.57-4,10.32-4.21,15.87s.35,11.13-.37,16.63c-.48,3.71-1.52,7.5-.61,11.13.86,3.46,3.42,6.4,3.82,9.94.57,5.21-3.65,9.82-4,15-.34,4.4,2.07,8.56,2.39,13s-1.45,8.64-2.3,13c-2.37,12,2.38,24.75-.73,36.62-1,3.91-2.72,8.59,0,11.58,1.48,1.61,3.8,2.07,6,2.45,6.16,1.07,13.18,1.94,18.05-2,2.43-1.95,4-4.92,6.73-6.44,3.14-1.76,7-1.19,10.6-1s7.76-.33,9.75-3.33c1.45-2.2,1.27-5.15.33-7.61s-2.52-4.62-3.81-6.93c-4.09-7.32-5-15.95-5.51-24.32-1.7-31.35,2.65-62.68,3.63-94.06" style="fill:#263238"></path><path d="M154.14,474.68l16.13-86.62s1.08-44,4.2-56.12c5.77-22.44,6.52-38.56,6.52-38.56s-24.22-2.91-41.63,19.32c-8.68,11.07-11.65,31.94-17.09,55.47s-9,68.71-14.92,106.51" style="fill:#ffbf9d"></path><path d="M372.81,328.3A38.89,38.89,0,0,0,338,301.44s.35,17.91-1.43,41c-1,12.49-5.89,39.83-5.89,39.83L319.25,474.7l46.89.06s5.74-57.08,8.18-81.17S377.45,341.58,372.81,328.3Z" style="fill:#ffbf9d"></path><path d="M309.8,474.68l26.31-90.17,4.41-82.81-67.26-7L181,293.39l-23.06,54.79c1.32,20.94,15.53,130.22,15,126.5" style="fill:#ffbf9d"></path><polygon points="340.52 301.7 327.67 300.35 246.38 398.96 201.69 293.48 180.99 293.38 163.95 407.35 169.47 453.76 314.28 459.33 325.65 418.48 340.52 301.7" style="fill:#D96B8C"></polygon><path d="M231,421.93a3.92,3.92,0,0,1-.54.37c-.36.22-.89.57-1.61,1a57.45,57.45,0,0,1-6.19,3.06,51.73,51.73,0,0,1-22.28,4.21,42.83,42.83,0,0,1-12.31-2.46,38.25,38.25,0,0,1-9.11-4.7,33.31,33.31,0,0,1-5.24-4.51c-.58-.58-1-1.09-1.24-1.42a2.67,2.67,0,0,1-.39-.52,4.61,4.61,0,0,1,.47.45c.31.3.71.79,1.3,1.35a37.17,37.17,0,0,0,5.3,4.35,39.48,39.48,0,0,0,9.07,4.55A43.46,43.46,0,0,0,200.43,430a53.16,53.16,0,0,0,22.11-4c2.69-1.1,4.8-2.14,6.24-2.9.72-.37,1.27-.69,1.65-.88A2.7,2.7,0,0,1,231,421.93Z" style="fill:#263238"></path><path d="M314.08,428.58a3.1,3.1,0,0,1-.44.54,17.37,17.37,0,0,1-1.38,1.47,28.66,28.66,0,0,1-6,4.42A33.83,33.83,0,0,1,296,438.74a37.66,37.66,0,0,1-13.46.1,44.4,44.4,0,0,1-12.72-4.45,52.63,52.63,0,0,1-9.14-6.13,59.93,59.93,0,0,1-5.39-5.09c-.6-.64-1-1.17-1.33-1.51a3.3,3.3,0,0,1-.44-.56,4.19,4.19,0,0,1,.51.49c.33.32.78.83,1.41,1.43a62.77,62.77,0,0,0,5.48,5,54.59,54.59,0,0,0,9.12,6,45,45,0,0,0,12.59,4.36,38.1,38.1,0,0,0,13.28-.06,34.49,34.49,0,0,0,10.26-3.58,30.62,30.62,0,0,0,6-4.25C313.4,429.26,314,428.54,314.08,428.58Z" style="fill:#263238"></path><g style="opacity:0.30000000000000004"><path d="M193.16,429.66c14.22,2.75,23.75-1.33,31.18-4.87s15.7-7.08,23.63-4.92c6.44,1.76,11.26,6.91,16.72,10.74A45.52,45.52,0,0,0,293,438.74a34.19,34.19,0,0,1-27.69,4.44c-10.15-2.81-19-10.33-29.49-10.85-8.31-.4-16.15,3.68-24.37,5-15.06,2.44-31.23-5.48-38.55-18.86C172.91,418.48,186.12,428.3,193.16,429.66Z"></path></g><path d="M138.11,337.38a7.58,7.58,0,0,1,0-1.51,16.31,16.31,0,0,1,.14-1.77c.09-.68.16-1.47.34-2.32s.34-1.8.62-2.78.58-2,.94-3.14a44.1,44.1,0,0,1,3.12-6.81,44.56,44.56,0,0,1,4.32-6.12c.78-.86,1.49-1.69,2.24-2.39s1.44-1.36,2.1-1.92,1.29-1,1.84-1.46a16.2,16.2,0,0,1,1.45-1,9,9,0,0,1,1.3-.77,7.71,7.71,0,0,1-1.18.94c-.39.28-.87.63-1.39,1.08s-1.15.91-1.78,1.51-1.34,1.21-2,2-1.43,1.54-2.18,2.39a45.86,45.86,0,0,0-4.24,6.07,46.89,46.89,0,0,0-3.12,6.72c-.36,1.08-.73,2.09-1,3.08s-.49,1.89-.67,2.74-.29,1.62-.41,2.29-.19,1.27-.23,1.75A8.24,8.24,0,0,1,138.11,337.38Z" style="fill:#fafafa"></path><path d="M185.61,451a7,7,0,0,1-2-1.28,17,17,0,0,1-5.9-9.68,6.94,6.94,0,0,1-.2-2.38,24.94,24.94,0,0,0,2.76,7.46A25.35,25.35,0,0,0,185.61,451Z" style="fill:#fafafa"></path><path d="M277.8,426.64a3,3,0,0,1-.9-.08,20.08,20.08,0,0,1-2.41-.51,29.74,29.74,0,0,1-13.81-8.28,22.15,22.15,0,0,1-1.59-1.89,2.78,2.78,0,0,1-.49-.76c.07-.05.87.94,2.34,2.39a34.85,34.85,0,0,0,6.34,4.91,34.32,34.32,0,0,0,7.31,3.27C276.55,426.31,277.82,426.55,277.8,426.64Z" style="fill:#fafafa"></path><path d="M364.35,353a9.92,9.92,0,0,1,0-1.71c0-1.19,0-2.77.06-4.67a60.44,60.44,0,0,0-1.53-15.23,28,28,0,0,0-7.42-13.15,25.82,25.82,0,0,0-5.15-3.68,1.36,1.36,0,0,1,.42.15,11.28,11.28,0,0,1,1.16.54,18.82,18.82,0,0,1,3.83,2.72,27.33,27.33,0,0,1,7.66,13.29,55.71,55.71,0,0,1,1.4,15.36c-.06,2-.15,3.57-.22,4.68A12.25,12.25,0,0,1,364.35,353Z" style="fill:#fafafa"></path><path d="M205.61,368.53a8.53,8.53,0,0,1,0,1.48c0,1.05-.1,2.4-.17,4-.16,3.4-.42,8.09-.74,13.27a7.81,7.81,0,0,1-.33,1.95,3,3,0,0,1-1.18,1.6,2,2,0,0,1-1.95.2,3.06,3.06,0,0,1-1.3-1.32,19.6,19.6,0,0,1-1.72-5.77,20.41,20.41,0,0,1-.2-4,5.92,5.92,0,0,1,.19-1.47,35.2,35.2,0,0,0,.37,5.45,20.73,20.73,0,0,0,1.78,5.59,2.5,2.5,0,0,0,1.08,1.1,1.48,1.48,0,0,0,1.47-.16c1-.62,1.2-1.91,1.27-3.17.32-5.18.64-9.86.9-13.25.13-1.62.24-3,.33-4A8,8,0,0,1,205.61,368.53Z" style="fill:#fafafa"></path><path d="M212.86,389.52s.15-.16.53-.23a2.14,2.14,0,0,1,1.53.4,2.44,2.44,0,0,1,1.1,2.09,2.37,2.37,0,0,1-2,2.08,2.91,2.91,0,0,1-1.55-.09,2.27,2.27,0,0,1-1.13-.93,2.76,2.76,0,0,1-.19-2.35,2.59,2.59,0,0,1,.95-1.26c.32-.2.53-.23.54-.21a3.31,3.31,0,0,0-1.14,1.59,2.45,2.45,0,0,0,.24,2,2,2,0,0,0,2.17.77,1.93,1.93,0,0,0,1.6-1.61,2.16,2.16,0,0,0-.85-1.75,2.18,2.18,0,0,0-1.3-.5C213.06,389.49,212.87,389.57,212.86,389.52Z" style="fill:#fafafa"></path><path d="M248.78,373.5a68,68,0,0,1-3.7-7.57,68.48,68.48,0,0,1-3.22-7.78,68,68,0,0,1,3.7,7.57A67.63,67.63,0,0,1,248.78,373.5Z" style="fill:#fafafa"></path><path d="M253.35,371.69a14.65,14.65,0,0,1,5.53-9.79,48.24,48.24,0,0,0-3.29,4.6A46.72,46.72,0,0,0,253.35,371.69Z" style="fill:#fafafa"></path><path d="M226.6,307.15a7.75,7.75,0,0,1-2.13-.09,38.25,38.25,0,0,1-5.06-.93,38.69,38.69,0,0,1-4.89-1.59,7.59,7.59,0,0,1-1.91-.94c.06-.15,3.07,1,6.93,2S226.62,307,226.6,307.15Z" style="fill:#fafafa"></path><path d="M337.68,355a3.68,3.68,0,0,1,0,.72c0,.53,0,1.22,0,2.08,0,1.8,0,4.4-.18,7.62s-.45,7-1.07,11.25a138,138,0,0,1-2.66,13.6c-1.17,4.77-2.46,9.27-3.61,13.36l-3,10.88-2,7.35c-.22.83-.4,1.49-.54,2a3.6,3.6,0,0,1-.23.69,5.16,5.16,0,0,1,.13-.72c.11-.51.26-1.18.45-2,.39-1.75,1-4.28,1.8-7.4s1.8-6.81,2.94-10.91,2.4-8.6,3.56-13.36,2.08-9.34,2.69-13.53.94-8,1.19-11.22.3-5.8.33-7.6c0-.85.06-1.54.08-2.07A3.42,3.42,0,0,1,337.68,355Z" style="fill:#ff9a6c"></path><path d="M157.22,354.45a2.44,2.44,0,0,1,.08.54c0,.41.09.93.14,1.55.12,1.42.27,3.36.46,5.71.39,4.81,1,11.46,1.81,18.79s1.72,13.94,2.41,18.73c.34,2.33.61,4.25.82,5.66.08.62.15,1.13.2,1.54a2.28,2.28,0,0,1,0,.55A1.89,1.89,0,0,1,163,407l-.3-1.53c-.26-1.32-.6-3.25-1-5.64-.78-4.77-1.73-11.39-2.56-18.72s-1.36-14-1.65-18.83c-.15-2.41-.25-4.36-.3-5.72,0-.62,0-1.14,0-1.55A1.8,1.8,0,0,1,157.22,354.45Z" style="fill:#ff9a6c"></path><path d="M190.62,422s-.14,0-.41-.07-.67-.15-1.16-.32a24.36,24.36,0,0,1-4.09-1.7,27.15,27.15,0,0,1-14.7-23.8,25.14,25.14,0,0,1,.3-4.42c.07-.51.18-.91.24-1.18a1.26,1.26,0,0,1,.12-.4,11.56,11.56,0,0,1-.16,1.61,30.5,30.5,0,0,0-.14,4.38,27.73,27.73,0,0,0,14.51,23.48,30.21,30.21,0,0,0,4,1.84A11.15,11.15,0,0,1,190.62,422Z" style="fill:#fafafa"></path><path d="M180.45,313c.15,0-.22,6.84-.81,15.26s-1.18,15.24-1.32,15.23.21-6.84.8-15.26S180.31,313,180.45,313Z" style="fill:#fafafa"></path><path d="M287,189.56q-.21,46.35-.43,92.7c0,2.3,0,4.77,1.35,6.66,2,2.87,6,3.24,9.53,3.34,6.91.2,14.81,0,19.34-5.23,3.78-4.36,3.86-10.71,3.73-16.48q-.91-40.89-1.82-81.77c-.29-13.22-.64-26.71-5.15-39.14" style="fill:#263238"></path><path d="M317,167.74a18.21,18.21,0,0,0-2.45-23.22c3.17-4.3,1.75-10.71-1.79-14.72s-8.63-6.21-13.56-8.27C296.08,109.39,282,101.29,270,104.66c-6.67-9.08-20.23-10.06-30.93-6.51-2.62.86-5.22,1.95-8,2a49.08,49.08,0,0,1-6-.61c-11.06-1.09-21.7,7.06-25.62,17.45a20.19,20.19,0,0,1-2.17,4.85c-1.36,1.9-3.49,3.06-5.28,4.55a17.59,17.59,0,0,0-6.26,13.24c0,4.28,1.5,8.76-.17,12.71-.83,2-2.4,3.61-3,5.66-1.82,6,4.9,11.71,3.92,17.85-.2,1.26-.72,2.43-1,3.67a10.84,10.84,0,0,0,.93,7.56c.93,1.77,2.39,3.37,2.58,5.36.15,1.51-.47,3-.72,4.48-.62,3.67,7.74,17.42,11,19.28l94-2.55a17.59,17.59,0,0,0,13.05-15.61,6.43,6.43,0,0,1,.75-3.49,7.59,7.59,0,0,1,2.5-1.76c5.94-3.47,6.37-11.8,5.48-18.61a8.45,8.45,0,0,1-.05-2.88A10.57,10.57,0,0,1,317,167.74Z" style="fill:#263238"></path><path d="M290.07,168.85c-.32-16.64-11.44-35.38-28.25-42.91-10.6-4.75-18.73-4.49-24.23-4.94a38.14,38.14,0,0,0-22,5.45c-5.14,1.41-23.49,19.47-23.8,38.37-.34,21,.08,46.63,3.29,62.13,6.46,31.17,30.71,34,30.71,34s-.24,35.41-.24,35.41l15.15,22.74,41.34-19.08,9-2Z" style="fill:#ffbf9d"></path><path d="M240,220.6a6.13,6.13,0,0,0-2.1-3.82,6.29,6.29,0,0,0-7.63-.49c-2.33,1.58-2.65,4.29-2.24,7.34h0c1.29,1.8,2.23,3.57,4.43,3.78a8.87,8.87,0,0,0,1,0,6.9,6.9,0,0,0,4.66-1.8A6.13,6.13,0,0,0,240,220.6Z" style="fill:#D96B8C"></path><path d="M206.28,189.93a4,4,0,0,0,4.07,3.89,3.87,3.87,0,0,0,4-3.83,4,4,0,0,0-4.07-3.88A3.84,3.84,0,0,0,206.28,189.93Z" style="fill:#263238"></path><g style="opacity:0.30000000000000004"><path d="M202.15,178.59a2.75,2.75,0,0,1-3.75-1,4,4,0,0,1,.25-4.12,7.41,7.41,0,0,1,3.41-2.62,13.44,13.44,0,0,1,8.78-.59c2.37.65,4.71,2.17,5.38,4.53a2.24,2.24,0,0,1-.5,2.4c-.84.66-2.05.18-3.05-.19a13.48,13.48,0,0,0-9.55.06" style="fill:#D96B8C"></path></g><path d="M200.14,180.85c.52.64,3.46-2.43,7.8-2.67s7.61,2.34,8.06,1.63c.22-.31-.34-1.49-1.77-2.7a9.31,9.31,0,0,0-6.48-2.14,9.49,9.49,0,0,0-6.18,3C200.29,179.32,199.88,180.56,200.14,180.85Z" style="fill:#263238"></path><path d="M226.53,209.57c0-.25-2.7-.59-7.09-.94-1.12-.06-2.17-.24-2.4-1s.11-2,.59-3.32c.92-2.72,1.87-5.58,2.88-8.58,4-12.21,6.81-22.23,6.32-22.38s-4.13,9.61-8.11,21.82c-.95,3-1.87,5.88-2.74,8.63-.36,1.27-1,2.73-.37,4.37a2.8,2.8,0,0,0,1.9,1.53,7.31,7.31,0,0,0,1.89.17C223.8,209.92,226.53,209.82,226.53,209.57Z" style="fill:#263238"></path><path d="M225.8,261A76.36,76.36,0,0,0,267,248.24s-9.73,24.29-41.3,22.82Z" style="fill:#ff9a6c"></path><path d="M199.23,169.11c.78,1,4.07.16,8,.3s7.15,1,8,0c.36-.49-.12-1.5-1.51-2.5a12.32,12.32,0,0,0-12.82-.26C199.39,167.62,198.89,168.61,199.23,169.11Z" style="fill:#263238"></path><path d="M254.46,188.51a4,4,0,0,1-3.84,4.1,3.84,3.84,0,0,1-4.19-3.59,4,4,0,0,1,3.84-4.11A3.85,3.85,0,0,1,254.46,188.51Z" style="fill:#263238"></path><g style="opacity:0.30000000000000004"><path d="M243.25,176.61a3.72,3.72,0,0,1-4.43-2,5.3,5.3,0,0,1,.48-5.06,9.42,9.42,0,0,1,4.08-3.29,25.22,25.22,0,0,1,9.86-1.88,18.8,18.8,0,0,1,7,.83,7.82,7.82,0,0,1,4.93,4.77,5,5,0,0,1-2.47,6c-2.32,1-4.91-.3-7.35-1a15.36,15.36,0,0,0-9.75.5" style="fill:#D96B8C"></path></g><path d="M260.24,178.2c-.52.74-3.87-2.44-8.54-2.44s-8,3-8.55,2.27c-.26-.33.26-1.66,1.73-3.06a9.91,9.91,0,0,1,6.82-2.73,10.07,10.07,0,0,1,6.82,2.86C260,176.54,260.5,177.88,260.24,178.2Z" style="fill:#263238"></path><path d="M260,162.07c-.84,1-4.2,0-8.23,0s-7.42.73-8.22-.29c-.35-.5.18-1.49,1.66-2.44a12.44,12.44,0,0,1,6.67-1.67,12.27,12.27,0,0,1,6.58,1.91C259.94,160.57,260.41,161.58,260,162.07Z" style="fill:#263238"></path><path d="M286.41,198.85c-.1-2.34,2.34-8,4.63-8.45,6.13-1.25,17.27-1.28,18.1,14.38,1.15,21.4-20.58,18.14-20.65,17.53S286.77,206.92,286.41,198.85Z" style="fill:#ffbf9d"></path><path d="M294,214.17c.09-.07.39.24,1,.5a3.76,3.76,0,0,0,2.79-.09c2.22-1,3.93-4.65,3.83-8.51a12.37,12.37,0,0,0-1.33-5.28c-.74-1.53-1.81-2.57-3-2.71a1.89,1.89,0,0,0-2.14,1.13c-.26.62-.1,1-.21,1.08s-.48-.33-.36-1.22a2.36,2.36,0,0,1,.78-1.39,2.8,2.8,0,0,1,2-.66c1.66,0,3.22,1.47,4.07,3.11a12.63,12.63,0,0,1,1.61,5.9c.11,5.06-3.09,8.89-4.94,9.53a4,4,0,0,1-3.44-.38C294,214.69,293.91,214.21,294,214.17Z" style="fill:#ff9a6c"></path><path d="M187.06,165.34c4.21-2.91,6.8-6.71,6.29-11.79,2.91.72,5.65-3.11,7.21-5.67s3.55-3.91,3.28-6.89a3.45,3.45,0,0,1,.14-1.75c.4-.84,1.4-1.15,2.27-1.47a14.37,14.37,0,0,0,9-10.41A30.3,30.3,0,0,0,230,129.11a11.61,11.61,0,0,0,19.58-1.76,10.42,10.42,0,0,0,7.19,4.81,31.28,31.28,0,0,0,8.91.07,12.29,12.29,0,0,0,8.72,13.53c.77.2,1.67.39,2.05,1.09a3.09,3.09,0,0,1-.22,2.4,9.68,9.68,0,0,0,7,12c-3.38,2.88-2.73,9.14,1.17,11.26.8.44,1.84,1,1.77,1.86a2.12,2.12,0,0,1-.43.94c-1.5,2.19-3,4.58-3.05,7.23s1.85,5.54,4.5,5.53c-1.33,1.3-2.55,2.95-2.5,4.82s2,3.67,3.73,2.92c.72-.32,11.29-2.91,11.73-3.57,5.68-8.5-2.36-17.24-3.43-27.41S291.7,145,286.2,136.34a48.5,48.5,0,0,0-8.08-10c-3.62-3.29-7.91-5.74-12.17-8.13-5.57-3.11-11.29-6.22-17.56-7.39-11.68-2.2-23.49,2.55-34,8A50.28,50.28,0,0,0,203,126.28c-4,3.69-6.78,8.42-9.21,13.25-3.5,7-6.34,14.48-6.74,22.28" style="fill:#263238"></path><path d="M238.74,215c-.63-.13-1.32,4.16-5.47,6.63s-8.65,1.28-8.78,1.88c-.1.26.89,1,2.81,1.35a10.79,10.79,0,0,0,7.29-1.33,9.43,9.43,0,0,0,4.32-5.6C239.35,216.14,239,215,238.74,215Z" style="fill:#263238"></path><path d="M190.62,145.17c-3.39,7.8-6.89,16.3-5.61,24.91.59,4,2.18,7.77,1.94,11.78-.3,4.85-3.26,9.11-3.41,14-.16,5.12,2.83,9.95,2.22,15-.77,6.36-6.85,10.47-7.63,16.83s4.18,12.3,3.65,18.77c-.43,5.32-4.52,9.85-4,15.14.51,4.92,4.89,8.36,5.36,13.29.41,4.28-2.28,8.36-1.89,12.64s3.71,7.42,4.53,11.59c1.06,5.35-2.16,10.46-3.3,15.79a21,21,0,0,0,2.46,15c2,3.23,6,5.65,8.71,3.17,1.76-1.65,2-4.63,2.14-7.27.19-4.5.39-9,.47-13.49a251.91,251.91,0,0,0-2.05-36.55c-1.22-9.42-3-18.86-2.41-28.37.49-8.08,2.67-16.17,1.5-24.15" style="fill:#263238"></path><path d="M316.77,148.48c6,7.54,12.29,15.78,10.41,24.48-.86,4-3.44,7.92-2.88,11.91.68,4.83,5.86,8.86,6.29,13.71.45,5.11-4.47,10.16-3.25,15.18,1.52,6.31,12,10,13.57,16.26s-6.68,12.61-5.56,19c.92,5.28,8,9.5,7.28,14.84-.71,4.95-8,8.72-8.66,13.67-.55,4.32,4.17,8.19,3.65,12.5s-6.05,7.69-7.3,11.92c-1.61,5.43,4.05,10.29,6.17,15.54,2,5,.66,10.75-3.67,15.2-3.28,3.38-10.06,6.1-14.69,3.82-3.07-1.52-3.61-4.48-3.9-7.11-.49-4.48-1-8.95-1.27-13.44a149.32,149.32,0,0,1,2.21-36.68c1.75-9.51,4.42-19.08,3.1-28.54-1.11-8-5.1-16-3.4-24" style="fill:#263238"></path><path d="M286.17,173.71a19.58,19.58,0,0,0-3.53,6.39c-.62,2.38-.19,5.19,1.68,6.77.63.53,1.42.94,1.76,1.69.51,1.15-.33,2.46-1.3,3.26s-2.16,1.45-2.71,2.59c-.8,1.67.12,3.65,1.24,5.13s2.5,2.92,2.73,4.76c.47,3.71-3.94,6.62-3.74,10.35.12,2.37,2.07,4.24,2.63,6.54.68,2.73-.69,5.52-2.15,7.92s-3.14,4.89-3.15,7.7,2.59,5.8,5.27,5c1,4.89,2,10,.7,14.83-.71,2.57-2.09,5-1.94,7.69a6.82,6.82,0,0,0,5.08,6.12,6.48,6.48,0,0,0,7.12-3.4c1.46-3.13.08-6.77-1.15-10a50.36,50.36,0,0,1-2.76-9.6,65.78,65.78,0,0,1-.48-11.66l1-55.23" style="fill:#263238"></path><path d="M310,135.06c2.6,6.58,13,7.5,15.09,14.25,1.79,5.68-3.58,11.77-1.85,17.47,1.5,4.95,8,7.89,7.78,13.07-.17,5-6.56,7.91-7.07,12.88-.7,6.87,9.78,10.16,10.66,17,.62,4.81-3.86,9.28-3,14,1.17,6.15,10.34,8.43,10.94,14.66.56,5.76-6.85,10-6.26,15.76.51,5,6.9,8.44,6,13.37-.38,2.17-2.12,3.8-3.54,5.5a22.78,22.78,0,0,0-3.88,21.8l-14.59-.12L309.8,164.18Z" style="fill:#263238"></path><path d="M169.53,247s-.56,0-1.27-.67a5,5,0,0,1-1.09-3.95,9,9,0,0,1,.76-2.91c.43-1,1-2,1.48-3a8.08,8.08,0,0,0,.91-3.37,5.07,5.07,0,0,0-1.48-3.32c-.92-1.07-2.16-2.06-3.32-3.46a7.59,7.59,0,0,1-1.43-2.53,5.69,5.69,0,0,1-.08-3.17c1.26-4.29,5.64-6.24,9-7.83a11.15,11.15,0,0,0,4.36-3.33,5.75,5.75,0,0,0,.49-5.1,22.93,22.93,0,0,0-3-5.51,21.45,21.45,0,0,1-3.24-6.53,8.87,8.87,0,0,1-.13-4,7.79,7.79,0,0,1,1.94-3.58,18.75,18.75,0,0,1,6.13-3.63c2-.87,3.86-1.72,5-3a5.51,5.51,0,0,0,1.21-4.77c-.54-3.6-3.1-6.6-4.41-10.21a11,11,0,0,1-.62-5.59,14.86,14.86,0,0,1,1.68-4.78c1.48-2.77,3.22-5,4.34-7a16,16,0,0,0,2-5.57,8.29,8.29,0,0,0-.26-3.69,7.9,7.9,0,0,0-.34-.93c-.08-.22-.1-.34-.06-.37s.13.05.29.23a3.64,3.64,0,0,1,.59.87,7.57,7.57,0,0,1,.79,4,15.87,15.87,0,0,1-1.73,6.15c-1.09,2.26-2.71,4.5-4,7.14a13.41,13.41,0,0,0-1.33,4.22,9,9,0,0,0,.65,4.56,40,40,0,0,0,2.49,4.77,18.21,18.21,0,0,1,2.26,5.81,9.12,9.12,0,0,1,0,3.49,7.21,7.21,0,0,1-.61,1.76,8.54,8.54,0,0,1-1,1.54,10.2,10.2,0,0,1-2.79,2.24,28.5,28.5,0,0,1-3,1.5,17.19,17.19,0,0,0-5.29,3.08,5.28,5.28,0,0,0-1.26,2.35,6.21,6.21,0,0,0,.11,2.83,19.13,19.13,0,0,0,2.86,5.71,24.47,24.47,0,0,1,3.26,6.21,9.33,9.33,0,0,1,.42,3.7,7.4,7.4,0,0,1-1.28,3.54,13.26,13.26,0,0,1-5.35,4.08c-.93.46-1.84.86-2.71,1.27a16,16,0,0,0-2.32,1.34,7.35,7.35,0,0,0-3,3.63,4.21,4.21,0,0,0,1,3.9c.92,1.2,2.14,2.27,3.16,3.54A6.77,6.77,0,0,1,172,233.1a9.21,9.21,0,0,1-1.27,4c-.59,1.1-1.2,2-1.67,2.92a8.12,8.12,0,0,0-.86,2.49,4.7,4.7,0,0,0,.49,3.49C169.14,246.67,169.59,246.89,169.53,247Z" style="fill:#263238"></path><path d="M279.38,229c-.35-.11.94-5.31,1.39-14,.12-2.15.28-4.56.37-7.06a17.62,17.62,0,0,0-1-7.51,7.47,7.47,0,0,0-1-1.63,15.7,15.7,0,0,0-1.42-1.53,7,7,0,0,1-1.58-2.26,5.25,5.25,0,0,1-.22-3,20.24,20.24,0,0,1,2-4.67,9.4,9.4,0,0,0,.78-2,8.06,8.06,0,0,0,.13-1c0-.32-.05-.65-.05-1a10,10,0,0,0-1.85-3.86c-.89-1.25-1.93-2.47-2.89-3.76a17,17,0,0,1-2.49-4.28,9.27,9.27,0,0,1-.44-5,17.86,17.86,0,0,1,1.48-4.25l1.76-3.55c1.06-2.23,1.66-4.36,1.26-6.25a18.38,18.38,0,0,0-2.2-5.12,20,20,0,0,1-1.88-4.14,6.69,6.69,0,0,1-.22-2.93c.16-.66.32-1,.4-1,.23,0-.15,1.41.77,3.55a25.19,25.19,0,0,0,2.18,3.73,18.59,18.59,0,0,1,2.75,5.47,8.89,8.89,0,0,1,.09,3.78,16.67,16.67,0,0,1-1.18,3.75c-1,2.42-2.42,4.8-2.84,7.32a6.73,6.73,0,0,0,.4,3.7,15.14,15.14,0,0,0,2.19,3.62c.92,1.21,2,2.41,3,3.79a12.19,12.19,0,0,1,2.32,5,12.51,12.51,0,0,1,.08,1.49,8.82,8.82,0,0,1-.2,1.47,11.78,11.78,0,0,1-1,2.55,19.35,19.35,0,0,0-1.86,4,3,3,0,0,0,1.1,3,17,17,0,0,1,1.57,1.78,9.21,9.21,0,0,1,1.22,2.15,14.23,14.23,0,0,1,1,4.44,28.27,28.27,0,0,1,0,4.12c-.19,2.61-.45,4.94-.7,7.13a69.86,69.86,0,0,1-1.83,10.23C280.12,227.81,279.54,229.05,279.38,229Z" style="fill:#263238"></path><path d="M324.92,334.21c-.56-5.09-.19-10.22,0-15.34a246.68,246.68,0,0,0-3.44-52.2L284.56,262c-1.83,1.93-.35,5.13,1.45,7.08s4.08,4.15,3.62,6.78c-.5,2.86-3.94,4.16-5.36,6.7-1.1,2-.83,4.4-.52,6.64q1.42,10.41,2.84,20.81a31.33,31.33,0,0,1,.41,7.42c-.44,4.3-2.66,8.29-3,12.6s2.53,9.52,6.84,9.1c-.82,3.83-1.64,7.82-.67,11.62s4.33,7.28,8.24,7c1.5-.09,2.93-.72,4.43-.8,2.51-.14,4.82,1.24,7.27,1.83,7.1,1.68,14.59-4.32,15.74-11.53C326.55,343,325.39,338.57,324.92,334.21Z" style="fill:#263238"></path><path d="M253.78,97.41a18.94,18.94,0,0,0-5.93.16,16.12,16.12,0,0,0-5.9,2.52,15,15,0,0,0-5.11,5.91l-.07.14h-.17l-.63,0a6.72,6.72,0,0,0-4.33,2.43,6.47,6.47,0,0,0-1.53,4.22v.27l-.27,0a6.23,6.23,0,0,0-4.23.92,7,7,0,0,0-2.41,2.44,7.75,7.75,0,0,0-.95,2.88,2.88,2.88,0,0,1,0-.82,6.07,6.07,0,0,1,.71-2.2,7.19,7.19,0,0,1,2.45-2.61,6.51,6.51,0,0,1,4.5-1.06l-.26.23a6.88,6.88,0,0,1,1.6-4.55,7.13,7.13,0,0,1,4.66-2.62l.69,0-.24.15a15.36,15.36,0,0,1,5.32-6.08,16,16,0,0,1,6.1-2.49,14.16,14.16,0,0,1,4.42-.14,10.24,10.24,0,0,1,1.18.22A1.26,1.26,0,0,1,253.78,97.41Z" style="fill:#455a64"></path><path d="M304.51,228.32h.37a3.22,3.22,0,0,1,1.05.29,5,5,0,0,1,2.48,3.25c.57,1.8,0,4.1-.9,6.46a24.85,24.85,0,0,0-1.25,3.88,7.25,7.25,0,0,0,.29,4.4c.61,1.48,2.15,2.3,3.58,3.34a5.29,5.29,0,0,1,1.8,2.1,4.81,4.81,0,0,1,.21,2.86,11.31,11.31,0,0,1-3,5.1c-1.33,1.49-2.83,3-3.44,5a5.78,5.78,0,0,0,0,3.06A11.1,11.1,0,0,0,307,271c1.15,1.87,2.67,3.64,3.55,5.86a9.13,9.13,0,0,1-.35,7.06c-.91,2.26-2.27,4.3-3.33,6.49a15.8,15.8,0,0,0-1.26,3.37,8.13,8.13,0,0,0,0,3.47c.53,2.29,2.16,4.09,3.64,5.84s3.09,3.57,3.54,5.9a6.57,6.57,0,0,1-.25,3.38,9.79,9.79,0,0,1-1.66,2.86c-1.34,1.69-2.92,3.06-4.2,4.6a9.42,9.42,0,0,0-2.49,5.07,10.63,10.63,0,0,0,1,5.23,32.48,32.48,0,0,0,2.41,4.41c1.7,2.71,3.17,5.37,3.41,8a6.71,6.71,0,0,1-.52,3.56,7.28,7.28,0,0,1-1.83,2.41,5.89,5.89,0,0,1-2.11,1.17,4.25,4.25,0,0,1-1.77.11,3,3,0,0,1-1-.35,1.5,1.5,0,0,1-.32-.19,5.81,5.81,0,0,0,1.36.44,4.21,4.21,0,0,0,1.7-.16,5.81,5.81,0,0,0,2-1.18,7.06,7.06,0,0,0,1.74-2.35,6.52,6.52,0,0,0,.45-3.43c-.26-2.53-1.72-5.13-3.43-7.83a32.83,32.83,0,0,1-2.47-4.44,11,11,0,0,1-1-5.44,9.85,9.85,0,0,1,2.57-5.32c1.3-1.57,2.88-2.95,4.17-4.6a9.27,9.27,0,0,0,1.58-2.72,6.26,6.26,0,0,0,.22-3.13c-.41-2.14-1.95-3.91-3.44-5.65s-3.17-3.6-3.76-6.06a8.88,8.88,0,0,1,0-3.7,16.65,16.65,0,0,1,1.3-3.49c1.09-2.22,2.43-4.26,3.32-6.45a8.67,8.67,0,0,0,.36-6.69c-.83-2.11-2.33-3.87-3.51-5.78a11.3,11.3,0,0,1-1.4-3.06,6.27,6.27,0,0,1,0-3.33c.67-2.14,2.23-3.68,3.56-5.17a10.87,10.87,0,0,0,2.92-4.88,4.21,4.21,0,0,0-.17-2.61,4.84,4.84,0,0,0-1.65-1.94c-.69-.53-1.44-1-2.1-1.52a5.24,5.24,0,0,1-1.58-2,7.61,7.61,0,0,1-.28-4.62,25.22,25.22,0,0,1,1.31-3.91c.94-2.35,1.49-4.57,1-6.31a5,5,0,0,0-2.34-3.2A4.14,4.14,0,0,0,304.51,228.32Z" style="fill:#455a64"></path><path d="M269.12,191.35a3.52,3.52,0,0,1,.13,1c.05.63.11,1.55.17,2.68s.11,2.52.18,4c0,.75.08,1.52.06,2.37a2.61,2.61,0,0,1-1.24,2.36,1.65,1.65,0,0,1-1.47,0,2.32,2.32,0,0,1-1-1,5.88,5.88,0,0,1-.51-2.39c-.07-1.53.06-2.87-.06-4a6.47,6.47,0,0,0-1.23-3.34s.32.18.69.72a6.05,6.05,0,0,1,.9,2.58c.18,1.15.09,2.52.18,4a5.62,5.62,0,0,0,.48,2.18,1.4,1.4,0,0,0,1.77.77,2.15,2.15,0,0,0,1-1.92c0-.79,0-1.59,0-2.34,0-1.46-.05-2.81-.07-4s0-2.05,0-2.69A4,4,0,0,1,269.12,191.35Z" style="fill:#fafafa"></path><path d="M269.87,207.23s.16-.1.49-.06a2.1,2.1,0,0,1,1.2.62,2.36,2.36,0,0,1,.68,1.92,2.34,2.34,0,0,1-4.09,1,2.36,2.36,0,0,1-.26-2,2.12,2.12,0,0,1,.79-1.11c.27-.18.45-.19.46-.17a2.74,2.74,0,0,0-.9,1.37,2.05,2.05,0,0,0,.3,1.64,1.9,1.9,0,0,0,3.23-.77,2.08,2.08,0,0,0-.48-1.6A2.74,2.74,0,0,0,269.87,207.23Z" style="fill:#fafafa"></path><path d="M310.82,154.39a8.14,8.14,0,0,1,.23,1.36c.11,1,.26,2.25.43,3.75s.37,3.5.59,5.56c.1,1.06.2,2.16.31,3.3a5.43,5.43,0,0,1-.69,3.58,3.09,3.09,0,0,1-1.52,1.19,2.3,2.3,0,0,1-1.89-.19,5.15,5.15,0,0,1-2-2.78,14.64,14.64,0,0,1-.86-5.57,9,9,0,0,0-.06-2.11,2.79,2.79,0,0,0-.67-1.38,2.33,2.33,0,0,0-1.15-.65,1.5,1.5,0,0,1,1.29.51,2.9,2.9,0,0,1,.82,1.46,8.8,8.8,0,0,1,.14,2.17,14.89,14.89,0,0,0,.94,5.4,4.72,4.72,0,0,0,1.78,2.5,1.78,1.78,0,0,0,1.48.15,2.65,2.65,0,0,0,1.26-1,5.11,5.11,0,0,0,.61-3.25c-.1-1.13-.2-2.23-.29-3.28-.18-2.07-.33-4-.47-5.57s-.2-2.78-.27-3.77A6.05,6.05,0,0,1,310.82,154.39Z" style="fill:#fafafa"></path><path d="M310,175.58s.2-.22.7-.36a3,3,0,0,1,2.15.28,3.15,3.15,0,0,1,1.15,1,2.88,2.88,0,0,1,.45,1.73,3.44,3.44,0,0,1-2.4,3.07,3.6,3.6,0,0,1-3.67-1.31,3.39,3.39,0,0,1-.51-3.17,3.76,3.76,0,0,1,1.24-1.77c.42-.3.7-.38.71-.35s-.22.17-.57.51a3.78,3.78,0,0,0-1,1.72,3,3,0,0,0,.53,2.76,3.17,3.17,0,0,0,3.16,1.11,3,3,0,0,0,2.06-2.6,2.51,2.51,0,0,0-1.3-2.4,3,3,0,0,0-1.93-.4C310.24,175.49,310,175.63,310,175.58Z" style="fill:#fafafa"></path><path d="M230.43,138.93a12.33,12.33,0,0,1,.07,1.75c0,1.21,0,2.82,0,4.76s0,4.43-.07,7.06a36,36,0,0,1-.16,4.2,4.21,4.21,0,0,1-.91,2.13,2.8,2.8,0,0,1-2.19,1,2.51,2.51,0,0,1-2-1.37,9.22,9.22,0,0,1-.81-2.12,24.38,24.38,0,0,1-.77-4.14c-.07-.66-.11-1.32-.12-1.95a2.31,2.31,0,0,0-.45-1.57.89.89,0,0,0-1.27-.1,3,3,0,0,1-1.48.72,2.63,2.63,0,0,1-2.37-1.41,4.26,4.26,0,0,1-.43-2,8.73,8.73,0,0,1,.11-1.3c0-.29.08-.45.1-.44s0,.62,0,1.74a4.3,4.3,0,0,0,.48,1.9,2.36,2.36,0,0,0,2.08,1.19,2.67,2.67,0,0,0,1.29-.7,1.5,1.5,0,0,1,.91-.3,1.38,1.38,0,0,1,.9.44,2.75,2.75,0,0,1,.6,1.85c0,.63.06,1.27.13,1.92a25.58,25.58,0,0,0,.79,4,8.81,8.81,0,0,0,.76,2,2,2,0,0,0,1.57,1.12,2.3,2.3,0,0,0,1.78-.85,3.7,3.7,0,0,0,.8-1.87,38.6,38.6,0,0,0,.18-4.13c.07-2.63.13-5,.18-7.05s.12-3.55.16-4.76A10.87,10.87,0,0,1,230.43,138.93Z" style="fill:#fafafa"></path><path d="M262.1,221.18c0,.06-.2.24-.23.63a.68.68,0,1,0,1.24-.26c-.18-.34-.47-.41-.46-.49s.39-.15.76.28a1,1,0,0,1-.63,1.74,1.07,1.07,0,0,1-1.12-.4,1.13,1.13,0,0,1-.15-1C261.69,221.19,262.09,221.11,262.1,221.18Z" style="fill:#fafafa"></path><path d="M219.5,159.48c-.07,0,0-.43.61-.56a1.12,1.12,0,0,1,.95.28,1.05,1.05,0,0,1,.12,1.23,1,1,0,0,1-1.09.57,1.06,1.06,0,0,1-.76-.63c-.22-.55.09-.87.13-.82s0,.32.2.65a.75.75,0,0,0,.51.33.61.61,0,0,0,.56-.34.6.6,0,0,0,0-.66.74.74,0,0,0-.55-.24C219.75,159.28,219.56,159.52,219.5,159.48Z" style="fill:#fafafa"></path><path d="M210.23,239.85s.62.07,1.24.85a2,2,0,0,1,.33,1.67,1.62,1.62,0,0,1-.6.9,1.56,1.56,0,0,1-1.15.25,2,2,0,0,1-1.57-1.41,2.2,2.2,0,0,1,.29-1.67c.52-.83,1.14-1,1.15-1s-.45.38-.83,1.14a2.06,2.06,0,0,0-.15,1.38,1.54,1.54,0,0,0,1.2,1,1,1,0,0,0,1.2-.76,1.69,1.69,0,0,0-.18-1.34C210.71,240.19,210.17,239.92,210.23,239.85Z" style="fill:#fafafa"></path><path d="M291.14,139.27c-.05,0-.21-.58-.63-1.6a17.47,17.47,0,0,0-2.32-4,17.78,17.78,0,0,0-5.12-4.55,16.79,16.79,0,0,0-3.7-1.63,29.25,29.25,0,0,1-4.3-1.17,3.85,3.85,0,0,1-1.69-1.65,13.32,13.32,0,0,1-.8-2.07,8.29,8.29,0,0,0-2.06-3.39,12.84,12.84,0,0,0-5.95-3.23,36,36,0,0,0-4.6-.83,11.28,11.28,0,0,1-1.71-.26,1.91,1.91,0,0,1,.45,0l1.28.07a29.65,29.65,0,0,1,4.67.67,13,13,0,0,1,6.2,3.25,8.69,8.69,0,0,1,2.2,3.57c.44,1.34.89,2.81,2.25,3.42a33.37,33.37,0,0,0,4.21,1.14,16.65,16.65,0,0,1,3.8,1.71,17.52,17.52,0,0,1,5.17,4.74,16,16,0,0,1,2.21,4.17,9.37,9.37,0,0,1,.36,1.24A1.3,1.3,0,0,1,291.14,139.27Z" style="fill:#fafafa"></path><path d="M191.84,142.87s0-.14-.07-.43a7.38,7.38,0,0,1-.05-1.26,11.31,11.31,0,0,1,6-9.41c1.16-.61,2.44-1.07,3.67-1.69a6.13,6.13,0,0,0,3-2.75,14.92,14.92,0,0,0,.76-4.18,7,7,0,0,1,1.65-3.77,10.63,10.63,0,0,1,6-3.37,23.45,23.45,0,0,1,4.61-.48,10.64,10.64,0,0,1,1.7,0,10.69,10.69,0,0,1-1.69.17,26.81,26.81,0,0,0-4.53.64,10.45,10.45,0,0,0-5.69,3.31,6.69,6.69,0,0,0-1.52,3.54,14.9,14.9,0,0,1-.78,4.33,6.64,6.64,0,0,1-3.27,3c-1.27.63-2.55,1.09-3.68,1.67a11,11,0,0,0-4.68,4.66,11.78,11.78,0,0,0-1.31,4.33C191.83,142.27,191.89,142.87,191.84,142.87Z" style="fill:#fafafa"></path><g style="opacity:0.30000000000000004"><path d="M268.13,202.29a23.41,23.41,0,0,0,.39-4.09c0-.2,0-.47-.24-.51s-.4.29-.43.55a27.67,27.67,0,0,0-.08,4,.36.36,0,0,0,.1.27c.08.06.23,0,.2-.1" style="fill:#fafafa"></path></g><g style="opacity:0.30000000000000004"><path d="M271.25,208.63a.31.31,0,0,0-.49,0l-.22.06a1.05,1.05,0,0,1-.37,1.25c-.14.09-.33.18-.34.35a.28.28,0,0,0,.15.26.55.55,0,0,0,.31.05,1.11,1.11,0,0,0,.73-.5,2.21,2.21,0,0,0,.3-.86A.77.77,0,0,0,271.25,208.63Z" style="fill:#fafafa"></path></g><g style="opacity:0.30000000000000004"><path d="M313.21,178.16a.36.36,0,0,0-.4-.28l-.12,0a1.66,1.66,0,0,1-1,1.32c-.24.11-.56.2-.61.46s.23.5.5.53a1.26,1.26,0,0,0,1-.43,2.8,2.8,0,0,0,.53-1A.92.92,0,0,0,313.21,178.16Z" style="fill:#fafafa"></path></g><path d="M269.83,265.52a1.53,1.53,0,0,1,.08.49c0,.32.08.8.13,1.41.09,1.23.2,3,.26,5.21s.07,4.83,0,7.74c-.07,1.47-.06,3-.25,4.59a3.62,3.62,0,0,1-1.12,2.27,2.4,2.4,0,0,1-1.23.59,1.91,1.91,0,0,1-1.37-.34,5.59,5.59,0,0,1-1.62-3q-.48-1.54-.87-3c-.51-2-.88-3.89-1.15-5.64h.44a4.93,4.93,0,0,1-1,2.52,1.91,1.91,0,0,1-2.37.52,3.29,3.29,0,0,1-1.15-1.82,14.55,14.55,0,0,1-.44-1.72,11.89,11.89,0,0,1-.2-2.48,3.25,3.25,0,0,1,.09-.87,20.78,20.78,0,0,0,.37,3.29,13.1,13.1,0,0,0,.48,1.67,3,3,0,0,0,1.05,1.61,1.51,1.51,0,0,0,1.86-.48,4.51,4.51,0,0,0,.83-2.32l.22-1.35.22,1.36c.29,1.73.68,3.62,1.2,5.58.25,1,.55,2,.87,3a5.27,5.27,0,0,0,1.43,2.7,1.55,1.55,0,0,0,2-.21,3.11,3.11,0,0,0,1-2c.18-1.52.19-3.09.27-4.52.1-2.91.12-5.52.11-7.72s-.06-4-.09-5.21A14.75,14.75,0,0,1,269.83,265.52Z" style="fill:#fafafa"></path><path d="M270.22,291.8a.88.88,0,0,1,.57-.13,2.42,2.42,0,0,1,1.49.56,2.66,2.66,0,0,1,1,2.13,2.66,2.66,0,0,1-4.62,1.46,2.67,2.67,0,0,1-.37-2.35,2.4,2.4,0,0,1,.9-1.31c.31-.21.53-.23.54-.21a2.9,2.9,0,0,0-1.09,1.62,2.37,2.37,0,0,0,.4,1.95,2.22,2.22,0,0,0,3.77-1.18,2.41,2.41,0,0,0-.8-1.83A3,3,0,0,0,270.22,291.8Z" style="fill:#fafafa"></path><g style="opacity:0.30000000000000004"><path d="M272,293.52a.47.47,0,0,0-.23-.32.6.6,0,0,0-.7.13.71.71,0,0,0-.19.64.86.86,0,0,1,0,.39c-.06.19-.3.26-.41.43a.44.44,0,0,0,.13.56.64.64,0,0,0,.6.08,1.12,1.12,0,0,0,.62-.64,3.06,3.06,0,0,0,.18-.9A.92.92,0,0,0,272,293.52Z" style="fill:#fafafa"></path></g><g style="opacity:0.30000000000000004"><path d="M267.83,274.44a1.57,1.57,0,0,0-.47,1.66,13.46,13.46,0,0,1,.44,1.77c.08,1.13-.7,2.26-.38,3.35.06.22.21.45.44.47s.43-.24.53-.47a5.68,5.68,0,0,0,.36-1.73,19.23,19.23,0,0,0-.18-4.91" style="fill:#fafafa"></path></g><path d="M327.54,290.51a3.94,3.94,0,0,1-.51-.5,8.05,8.05,0,0,1-1.17-1.7,12.83,12.83,0,0,1-1.06-7.43,25.74,25.74,0,0,1,1.17-5.1c.6-1.78,1.37-3.63,2.09-5.6a28.58,28.58,0,0,0,1.68-6.3,14.48,14.48,0,0,0,0-3.42,17,17,0,0,0-.84-3.43c-.76-2.27-1.72-4.54-1.69-6.93a13,13,0,0,1,2.26-6.25,17.88,17.88,0,0,0,2.45-5.33,9.48,9.48,0,0,0-.41-5,22.58,22.58,0,0,0-3.83-6.38l-1.31-1.57A2.88,2.88,0,0,1,326,225a3.94,3.94,0,0,1,.51.5c.33.33.8.84,1.38,1.51a21.51,21.51,0,0,1,4,6.39,9.78,9.78,0,0,1,.5,5.22,18.33,18.33,0,0,1-2.47,5.48c-1,1.8-2.13,3.78-2.16,6s.9,4.46,1.67,6.76a16.69,16.69,0,0,1,.86,3.53,14.44,14.44,0,0,1,0,3.54,29.25,29.25,0,0,1-1.74,6.41c-.74,2-1.52,3.82-2.13,5.57a25,25,0,0,0-1.21,5,12.88,12.88,0,0,0,.87,7.29A14.27,14.27,0,0,0,327.54,290.51Z" style="fill:#fafafa"></path><path d="M187,284.31a15.18,15.18,0,0,0,1.2-2.19,12.71,12.71,0,0,0,.57-6.7,27.79,27.79,0,0,0-1.12-4.57c-.55-1.61-1.24-3.3-1.9-5.11a29.08,29.08,0,0,1-1.56-5.86,13.19,13.19,0,0,1,.67-6.49c.76-2.11,1.86-4,2.57-5.93a9.58,9.58,0,0,0,.54-5.77,22.28,22.28,0,0,0-2-5,28.64,28.64,0,0,1-1.94-4.37,9.34,9.34,0,0,1,.13-6.82,5.12,5.12,0,0,1,1.14-1.51,3.62,3.62,0,0,1,.54-.38,6.37,6.37,0,0,0-1.5,2,9.37,9.37,0,0,0,0,6.63,30.56,30.56,0,0,0,2,4.28,22.11,22.11,0,0,1,2.07,5.09,9.15,9.15,0,0,1,.21,3,11.64,11.64,0,0,1-.74,3c-.73,2-1.82,3.88-2.57,5.94a12.88,12.88,0,0,0-.65,6.24,28.89,28.89,0,0,0,1.52,5.77c.63,1.81,1.31,3.5,1.85,5.13a27.39,27.39,0,0,1,1.08,4.66,12.68,12.68,0,0,1-.75,6.83A6.83,6.83,0,0,1,187,284.31Z" style="fill:#fafafa"></path><path d="M212,161.77a25.1,25.1,0,0,0-5.6-.46,25.37,25.37,0,0,0-5.46,1.28,11.73,11.73,0,0,1,11.06-.82Z" style="fill:#fafafa"></path><path d="M202,232.08a2.62,2.62,0,0,1-.38-.42,11.74,11.74,0,0,1-1-1.32,19,19,0,0,1-2.23-5.54,49.89,49.89,0,0,1-1.11-8.8c-.19-3.33-.39-7-.61-10.8-.38-7.64-.72-14.55-1-19.64-.1-2.46-.18-4.47-.24-5.95,0-.66,0-1.2,0-1.62a2.12,2.12,0,0,1,0-.57,3.58,3.58,0,0,1,.08.56c0,.43.08,1,.13,1.62.11,1.47.24,3.49.41,5.94.29,5.09.69,12,1.13,19.63.2,3.83.39,7.48.57,10.81a51.77,51.77,0,0,0,1,8.73,20.15,20.15,0,0,0,2,5.53C201.53,231.45,202,232.05,202,232.08Z" style="fill:#fafafa"></path><path d="M319.35,262.12l1.94,1.07a.53.53,0,0,1,0,.93l-2,1.06a.53.53,0,0,0-.21.21l-1.07,1.94a.53.53,0,0,1-.93,0l-1.06-1.95a.53.53,0,0,0-.21-.21l-1.94-1.07a.53.53,0,0,1,0-.93l1.94-1.06a.56.56,0,0,0,.22-.21l1.07-1.94a.53.53,0,0,1,.93,0l1.06,2A.47.47,0,0,0,319.35,262.12Z" style="fill:#fff"></path><path d="M169.65,201l1.95,1.07a.53.53,0,0,1,0,.93L169.65,204a.56.56,0,0,0-.22.21l-1.06,1.94a.54.54,0,0,1-.94,0l-1.05-1.95a.56.56,0,0,0-.22-.21L164.22,203a.53.53,0,0,1,0-.93l1.94-1.06a.47.47,0,0,0,.21-.21l1.07-1.94a.54.54,0,0,1,.94,0l1.05,2A.53.53,0,0,0,169.65,201Z" style="fill:#fff"></path><path d="M303.57,144.06l1.94,1.07a.53.53,0,0,1,0,.93l-1.95,1.06a.53.53,0,0,0-.21.21l-1.07,1.94a.53.53,0,0,1-.93,0l-1.06-2a.53.53,0,0,0-.21-.21L298.14,146a.53.53,0,0,1,0-.93l1.95-1.06a.53.53,0,0,0,.21-.21l1.07-1.94a.53.53,0,0,1,.93,0l1.06,1.95A.53.53,0,0,0,303.57,144.06Z" style="fill:#fff"></path><path d="M298.26,249.59l1,.54a.27.27,0,0,1,0,.48l-1,.53a.29.29,0,0,0-.11.11l-.54,1a.27.27,0,0,1-.47,0l-.54-1a.2.2,0,0,0-.11-.11l-1-.54a.27.27,0,0,1,0-.48l1-.53a.57.57,0,0,0,.11-.11l.54-1a.27.27,0,0,1,.47,0l.54,1A.22.22,0,0,0,298.26,249.59Z" style="fill:#fff"></path><path d="M189.57,219.12l1,.54a.27.27,0,0,1,0,.47l-1,.54a.2.2,0,0,0-.11.11l-.54,1a.27.27,0,0,1-.48,0l-.53-1a.57.57,0,0,0-.11-.11l-1-.54a.27.27,0,0,1,0-.47l1-.54a.2.2,0,0,0,.11-.11l.54-1a.27.27,0,0,1,.48,0l.53,1A.38.38,0,0,0,189.57,219.12Z" style="fill:#fff"></path><path d="M188.19,162.69l1,.55a.27.27,0,0,1,0,.47l-1,.54a.27.27,0,0,0-.11.1l-.54,1a.28.28,0,0,1-.48,0l-.53-1a.29.29,0,0,0-.11-.11l-1-.54a.27.27,0,0,1,0-.47l1-.54a.23.23,0,0,0,.11-.11l.54-1a.27.27,0,0,1,.48,0l.54,1A.24.24,0,0,0,188.19,162.69Z" style="fill:#fff"></path><path d="M299.5,179.2l1,.55a.27.27,0,0,1,0,.47l-1,.54a.22.22,0,0,0-.11.1l-.54,1a.27.27,0,0,1-.48,0l-.53-1a.29.29,0,0,0-.11-.11l-1-.54a.27.27,0,0,1,0-.47l1-.54a.2.2,0,0,0,.11-.11l.54-1a.27.27,0,0,1,.48,0l.53,1A.35.35,0,0,0,299.5,179.2Z" style="fill:#fff"></path><path d="M240.79,318.16l1,.54a.27.27,0,0,1,0,.47l-1,.54a.2.2,0,0,0-.11.11l-.54,1a.27.27,0,0,1-.48,0l-.53-1-.11-.11-1-.54a.27.27,0,0,1,0-.47l1-.54a.2.2,0,0,0,.11-.11l.54-1a.27.27,0,0,1,.48,0l.53,1A.38.38,0,0,0,240.79,318.16Z" style="fill:#fff"></path></g></svg>
